<?xml version="1.0" standalone="no"?>
<!DOCTYPE svg PUBLIC "-//W3C//DTD SVG 20010904//EN"
 "http://www.w3.org/TR/2001/REC-SVG-20010904/DTD/svg10.dtd">
<svg version="1.0" xmlns="http://www.w3.org/2000/svg"
 width="512.000000pt" height="512.000000pt" viewBox="0 0 512.000000 512.000000"
 preserveAspectRatio="xMidYMid meet">

<g transform="translate(0.000000,512.000000) scale(0.100000,-0.100000)"
fill="#000000" stroke="none">
<path d="M4815 5085 c-1272 -265 -2492 -875 -3303 -1650 l-95 -90 7 59 8 58
-69 -7 -68 -6 -43 163 c-24 91 -47 170 -52 178 -6 10 -31 -5 -100 -60 -71 -55
-94 -69 -101 -59 -5 8 -37 67 -71 132 l-63 117 -30 -37 c-16 -21 -42 -51 -56
-67 l-26 -30 -174 148 c-171 144 -174 146 -180 119 -3 -15 -16 -117 -29 -227
l-24 -198 -66 6 c-36 4 -75 9 -87 12 -21 6 -21 4 16 -139 l37 -146 -58 -5
c-32 -3 -85 -9 -118 -12 -33 -3 -60 -8 -60 -11 0 -3 37 -77 81 -164 l81 -159
-28 -23 c-16 -12 -39 -31 -52 -42 l-23 -20 116 -100 c189 -163 268 -202 474
-232 64 -9 117 -17 119 -19 2 -1 -36 -66 -84 -145 -102 -170 -263 -493 -332
-669 -201 -508 -311 -1024 -348 -1636 l-6 -111 38 -6 c22 -4 69 -7 106 -7 l66
0 6 63 c3 34 10 132 16 217 12 171 48 451 59 463 4 4 43 -31 86 -79 153 -168
254 -223 527 -288 156 -38 148 -40 148 54 l0 59 43 5 c215 27 367 50 367 57 0
4 -30 57 -66 119 -37 61 -62 115 -58 119 5 4 78 34 162 66 l153 58 -65 66
c-36 37 -66 71 -66 77 0 5 12 17 27 26 27 16 345 304 351 317 3 8 -391 112
-452 118 -25 3 -46 11 -46 17 0 6 12 49 25 95 14 47 24 85 22 86 -1 1 -67 -6
-147 -16 -211 -26 -198 -28 -194 29 12 167 11 222 -1 222 -16 0 -308 -106
-347 -126 -34 -18 -36 -16 -79 62 -23 42 -23 42 -4 86 33 75 145 278 227 410
199 321 475 653 765 920 76 70 148 135 161 143 l22 16 0 -162 c0 -150 -1 -161
-17 -153 -10 4 -52 9 -93 12 -298 16 -434 -299 -268 -622 61 -117 192 -247
305 -301 l82 -40 1 -113 c0 -63 5 -123 11 -135 19 -38 51 -57 97 -57 35 0 49
6 73 29 29 29 29 30 29 150 l0 121 73 36 c182 92 325 262 371 440 23 91 21
220 -5 290 -26 70 -86 137 -154 172 -44 23 -62 26 -145 26 -52 0 -105 -3 -118
-8 l-22 -8 0 253 0 254 108 77 c145 103 295 203 433 286 122 73 410 232 422
232 4 0 7 -71 7 -158 l0 -159 -57 15 c-103 26 -224 -9 -302 -87 -98 -98 -123
-265 -65 -439 32 -95 85 -175 178 -267 73 -73 107 -99 173 -130 l82 -40 1
-118 c0 -65 5 -127 10 -138 6 -10 24 -26 40 -34 45 -23 85 -19 122 14 l33 29
3 124 4 124 86 44 c100 51 225 168 281 263 119 202 121 427 6 555 -91 101
-240 136 -368 87 -16 -7 -17 7 -17 207 l0 214 95 43 c153 68 397 165 570 226
152 54 475 155 495 155 6 0 10 -76 10 -191 0 -178 -1 -191 -17 -184 -10 5 -48
10 -84 13 -139 9 -251 -54 -311 -175 -32 -65 -33 -72 -32 -178 1 -123 16 -177
80 -294 56 -101 188 -226 291 -276 l82 -40 0 -107 c1 -59 5 -118 10 -131 28
-72 118 -92 172 -38 29 29 29 30 29 151 l0 121 47 20 c77 33 179 106 239 172
240 265 240 620 -1 745 -64 33 -190 43 -248 19 l-37 -16 0 224 0 224 35 10
c19 5 108 24 197 41 90 18 173 39 185 46 13 8 30 28 39 46 34 65 -24 149 -101
147 -16 0 -102 -15 -190 -34z m-450 -912 c16 -16 43 -60 62 -100 42 -91 73
-117 130 -110 24 2 50 10 58 17 9 7 34 50 55 96 48 100 79 128 134 121 24 -3
49 -16 65 -31 24 -24 26 -33 26 -114 0 -79 -3 -94 -34 -156 -60 -122 -224
-256 -313 -256 -48 0 -148 58 -215 125 -174 174 -187 432 -22 435 16 0 38 -11
54 -27z m-1383 -470 c14 -16 42 -59 61 -98 41 -82 62 -104 108 -111 55 -8 89
21 133 112 50 105 69 124 121 124 164 0 145 -263 -31 -437 -61 -60 -169 -123
-212 -123 -10 0 -51 16 -90 35 -89 45 -182 141 -226 234 -35 76 -47 181 -26
232 26 62 117 80 162 32z m-2360 -95 c55 -66 79 -101 111 -161 l25 -47 31 65
c16 36 33 65 36 65 22 0 85 -201 85 -271 0 -58 11 -53 46 19 18 37 52 90 75
116 42 47 43 48 52 25 5 -13 9 -68 9 -121 1 -54 1 -98 2 -98 1 0 23 7 50 15
l48 15 -7 -37 c-19 -104 -46 -148 -197 -330 -81 -97 -65 -94 -275 -63 -88 13
-156 29 -191 45 -60 28 -112 62 -112 75 0 5 20 16 46 26 l45 17 -49 47 c-26
25 -63 67 -81 93 l-32 47 42 0 c51 0 150 -25 202 -51 38 -20 38 -20 28 0 -6
11 -15 23 -21 26 -23 14 -130 227 -130 259 0 11 25 6 83 -19 l59 -24 -6 22
c-31 105 -48 297 -27 297 5 0 29 -24 53 -52z m1178 -695 c18 -20 45 -64 60
-98 31 -70 69 -105 112 -105 55 0 82 24 122 107 60 124 97 151 170 123 46 -17
67 -66 64 -146 -6 -139 -117 -299 -258 -371 -78 -41 -105 -41 -182 -2 -115 58
-212 171 -249 290 -33 106 -21 186 35 220 50 30 89 25 126 -18z m-911 -1324
c-12 -59 -75 -201 -111 -251 l-23 -33 33 23 c71 51 209 104 355 136 l27 7 -15
-38 c-9 -21 -29 -59 -45 -86 l-29 -47 42 7 c99 18 365 5 352 -18 -20 -32 -205
-137 -297 -168 l-53 -18 35 -18 c46 -23 120 -76 120 -86 0 -4 -42 -18 -92 -30
-70 -17 -124 -23 -213 -23 l-121 -1 61 -35 c33 -19 96 -71 140 -115 l80 -80
-87 -3 c-51 -2 -112 3 -150 12 -34 8 -64 13 -65 12 -2 -1 2 -18 7 -37 6 -18
10 -47 10 -62 0 -34 -7 -33 -120 21 -63 29 -92 52 -183 146 -60 61 -129 134
-153 163 l-45 52 51 188 c57 206 88 274 159 354 l48 53 16 -49 c10 -27 17 -58
17 -69 0 -18 3 -17 33 11 17 16 48 41 67 55 37 28 153 89 157 84 2 -2 -2 -27
-8 -57z"/>
</g>
</svg>
