<?xml version="1.0" standalone="no"?>
<!DOCTYPE svg PUBLIC "-//W3C//DTD SVG 20010904//EN"
 "http://www.w3.org/TR/2001/REC-SVG-20010904/DTD/svg10.dtd">
<svg version="1.0" xmlns="http://www.w3.org/2000/svg"
 width="768.000000pt" height="1024.000000pt" viewBox="0 0 768.000000 1024.000000"
 preserveAspectRatio="xMidYMid meet">

<g transform="translate(0.000000,1024.000000) scale(0.100000,-0.100000)"
fill="#000000" stroke="none">
<path d="M2960 10236 c0 -2 9 -24 20 -49 22 -50 68 -91 112 -102 35 -9 41 -29
27 -96 -14 -69 -19 -129 -10 -129 4 0 29 20 55 45 30 29 42 47 34 50 -22 9 -9
95 18 128 22 26 54 112 54 144 0 20 -48 16 -55 -4 -3 -10 -17 -31 -30 -48
l-25 -30 9 30 c5 17 12 38 16 48 4 10 3 17 -3 17 -6 0 -14 -10 -18 -22 l-7
-23 -10 25 c-10 24 -11 23 -16 -15 -4 -26 -9 -36 -14 -27 -14 20 -85 62 -106
62 -15 0 -19 -5 -15 -17 5 -17 5 -17 -9 0 -13 15 -27 23 -27 13z m53 -50 c4
-10 1 -13 -8 -9 -8 3 -12 9 -9 14 7 12 11 11 17 -5z m227 0 c0 -2 -8 -10 -17
-17 -16 -13 -17 -12 -4 4 13 16 21 21 21 13z m-157 -53 c-7 -2 -19 -2 -25 0
-7 3 -2 5 12 5 14 0 19 -2 13 -5z m42 -33 c3 -6 -1 -7 -9 -4 -18 7 -21 14 -7
14 6 0 13 -4 16 -10z m44 -77 c-1 -51 -12 -86 -28 -91 -10 -3 -12 3 -8 24 3
16 8 46 12 67 3 20 10 37 15 37 6 0 10 -17 9 -37z"/>
<path d="M3500 10200 c-124 -75 -190 -123 -190 -138 0 -13 3 -13 18 1 22 20
39 22 45 5 3 -7 4 -1 4 14 -1 15 3 28 8 29 6 1 33 17 62 36 29 18 55 33 58 33
3 0 13 8 23 18 10 9 27 22 38 29 10 6 15 12 9 12 -5 0 -39 -18 -75 -39z"/>
<path d="M3660 10223 c0 -12 -20 -17 -36 -10 -3 1 -10 -6 -15 -15 -11 -20
-154 -128 -169 -128 -5 0 -10 -4 -10 -10 0 -5 -7 -10 -16 -10 -8 0 -12 -4 -9
-10 3 -5 2 -10 -3 -10 -5 0 -27 -16 -47 -35 -28 -25 -42 -32 -51 -24 -9 8 -11
5 -7 -9 3 -12 -4 -24 -19 -34 -38 -25 -208 -197 -208 -210 0 -6 -18 -33 -39
-58 -38 -45 -72 -109 -86 -160 -7 -24 -6 -24 8 -5 8 11 27 46 43 78 37 78 94
132 179 172 110 52 206 80 191 56 -3 -5 5 -12 19 -15 14 -4 24 -12 22 -18 -1
-6 26 -26 61 -44 57 -29 70 -31 162 -32 96 -1 130 10 73 24 -37 9 -103 42
-128 64 -11 10 -30 21 -42 25 -32 9 -28 22 7 27 24 4 38 -2 64 -26 18 -17 59
-44 92 -61 32 -16 62 -33 65 -38 4 -5 28 -3 55 5 l49 14 -55 -1 c-46 0 -65 6
-113 35 -69 41 -114 76 -107 83 3 3 37 8 75 12 39 4 73 9 77 11 4 3 64 7 134
10 123 6 254 -6 297 -28 11 -5 17 -5 17 1 0 11 -3 12 -123 36 -53 10 -103 13
-158 9 -77 -6 -80 -5 -71 12 6 11 24 28 41 39 17 11 31 23 31 28 0 11 -51 -24
-80 -55 -18 -19 -39 -29 -75 -33 -27 -4 -72 -11 -100 -15 -27 -4 -51 -7 -53
-5 -5 5 112 107 135 118 13 6 23 14 23 19 0 15 -92 -52 -136 -99 -28 -30 -51
-45 -73 -48 -18 -2 -46 -7 -62 -10 -35 -8 -35 -6 -9 46 30 58 92 120 131 130
29 7 26 8 -16 4 -27 -3 -51 -10 -53 -15 -2 -6 -12 -10 -21 -10 -10 0 -50 -31
-90 -70 -44 -43 -80 -70 -94 -70 -12 -1 -33 -8 -47 -16 l-25 -15 28 5 c15 3
38 9 52 12 15 4 25 2 25 -5 0 -8 -23 -17 -95 -36 -21 -5 -25 -7 -55 -15 -39
-11 -50 7 -13 23 21 9 29 20 30 41 1 17 10 34 20 39 9 6 35 27 57 47 46 41
191 153 251 194 22 14 61 40 88 57 51 33 58 45 27 45 -11 0 -20 -6 -20 -13z
m-162 -273 c-7 -10 -14 -18 -15 -16 -6 6 9 36 18 36 5 0 4 -9 -3 -20z m-51
-86 c-8 -15 -17 -22 -20 -17 -7 10 22 58 30 50 2 -3 -2 -18 -10 -33z m-5 -61
c-6 -2 -9 -10 -5 -16 4 -7 -2 -5 -13 3 -10 8 -21 16 -23 17 -2 2 9 3 25 2 16
0 23 -3 16 -6z m31 -38 c-3 -9 -8 -14 -10 -11 -3 3 -2 9 2 15 9 16 15 13 8 -4z
m113 -39 c18 5 18 5 0 -6 -15 -10 -21 -9 -35 6 -14 16 -14 17 0 6 9 -7 25 -10
35 -6z"/>
<path d="M2451 10153 c-1 -20 4 -32 10 -30 6 1 32 -44 58 -100 25 -57 54 -110
63 -119 18 -19 -86 201 -107 226 -7 8 -15 24 -18 35 -3 13 -5 9 -6 -12z"/>
<path d="M2490 10152 c0 -5 10 -17 22 -28 l21 -19 -18 28 c-18 28 -25 33 -25
19z"/>
<path d="M3246 10010 c-21 -23 -36 -44 -32 -47 7 -7 61 42 77 70 17 30 -6 18
-45 -23z"/>
<path d="M2461 10024 c0 -11 3 -14 6 -6 3 7 2 16 -1 19 -3 4 -6 -2 -5 -13z"/>
<path d="M3340 10030 c0 -5 5 -10 11 -10 5 0 7 5 4 10 -3 6 -8 10 -11 10 -2 0
-4 -4 -4 -10z"/>
<path d="M3780 10019 c0 -5 5 -7 10 -4 6 3 10 8 10 11 0 2 -4 4 -10 4 -5 0
-10 -5 -10 -11z"/>
<path d="M2606 10005 c4 -8 11 -15 16 -15 6 0 5 6 -2 15 -7 8 -14 15 -16 15
-2 0 -1 -7 2 -15z"/>
<path d="M3928 9993 c7 -3 16 -2 19 1 4 3 -2 6 -13 5 -11 0 -14 -3 -6 -6z"/>
<path d="M2468 9985 c-7 -7 3 -55 11 -55 4 0 6 14 3 30 -4 32 -5 33 -14 25z"/>
<path d="M2640 9978 c-5 -16 -6 -24 -14 -71 -7 -43 -9 -47 -29 -41 -12 4 -38
18 -57 32 l-35 25 33 -32 c18 -17 38 -31 46 -31 8 0 23 -19 35 -42 17 -36 20
-38 15 -13 -4 17 -7 32 -7 35 0 3 5 31 12 63 7 31 10 63 8 70 -3 6 -6 9 -7 5z"/>
<path d="M4060 9942 c1 -9 101 -54 108 -48 4 5 -42 30 -83 46 -14 5 -25 6 -25
2z"/>
<path d="M3905 9845 c17 -13 37 -24 45 -25 8 0 -2 11 -22 25 -47 32 -62 32
-23 0z"/>
<path d="M2739 9858 c0 -2 -2 -21 -4 -43 -3 -22 -14 -70 -25 -107 l-21 -68
-57 32 c-78 44 -115 75 -129 112 l-13 31 6 -35 c4 -19 7 -35 8 -35 3 -1 82
-60 86 -64 3 -4 26 -16 53 -28 27 -13 47 -29 47 -39 0 -29 -85 9 -143 65 -26
24 -36 30 -31 16 5 -11 21 -30 36 -44 16 -13 26 -26 23 -30 -4 -3 -15 5 -27
19 -16 20 -18 21 -13 5 4 -11 8 -26 8 -33 0 -7 6 -11 13 -8 7 3 10 -2 7 -15
-5 -18 11 -27 20 -11 2 4 3 2 1 -4 -3 -12 33 -42 82 -67 30 -16 42 -39 50
-106 2 -13 8 -37 14 -54 5 -16 10 -47 10 -68 0 -21 4 -49 10 -64 9 -25 22
-116 22 -162 0 -13 3 -23 7 -23 3 0 7 -26 8 -57 2 -31 7 -61 13 -67 5 -5 10
-18 10 -27 0 -9 9 -36 19 -60 21 -45 19 -64 -5 -55 -8 3 -14 1 -14 -4 0 -5 12
-13 28 -16 35 -9 85 -46 75 -55 -5 -4 -28 -4 -53 1 -25 5 -55 9 -68 10 -37 0
-16 -17 29 -24 69 -11 127 -43 160 -89 30 -42 177 -197 186 -197 12 0 113 -94
110 -103 -2 -8 -50 -21 -182 -49 -5 -1 -36 6 -68 16 -56 17 -87 15 -57 -4 14
-9 6 -15 -14 -11 -5 1 -12 -3 -16 -10 -6 -8 -13 -8 -26 0 -18 10 -18 10 3 11
12 0 25 5 28 10 4 6 -9 10 -31 10 -36 0 -98 -23 -154 -56 -14 -9 -33 -18 -42
-21 -10 -3 -18 -11 -18 -17 0 -7 -12 -17 -27 -23 l-28 -12 30 6 c17 3 35 9 40
13 10 6 72 4 130 -4 17 -3 39 -5 51 -5 11 -1 29 -7 39 -15 19 -13 18 -15 -18
-32 -20 -10 -37 -21 -37 -26 0 -4 -7 -8 -15 -8 -8 0 -15 -5 -15 -10 0 -6 25 4
55 21 65 37 65 38 29 -97 -45 -176 -55 -204 -82 -230 l-27 -25 32 18 c18 10
33 23 33 30 0 29 24 63 44 62 17 -1 18 -2 4 -6 -10 -3 -18 -14 -18 -26 0 -12
4 -17 8 -12 4 6 16 15 27 21 21 11 128 164 120 172 -2 3 2 20 10 39 8 19 13
39 10 43 -3 5 -1 11 5 15 5 3 10 27 11 53 0 26 3 42 5 35 4 -8 15 -7 42 4 20
9 57 21 81 27 25 7 46 17 48 23 3 7 -9 6 -36 -3 -21 -7 -50 -15 -63 -18 -12
-2 -35 -7 -49 -11 -15 -4 -30 -2 -33 3 -8 14 2 38 17 40 7 0 43 7 80 14 62 11
72 11 99 -5 20 -11 35 -14 46 -8 11 6 26 2 51 -15 19 -13 37 -21 40 -18 3 4
-3 11 -13 18 -10 6 -38 27 -61 47 -23 19 -85 67 -137 107 -52 39 -108 88 -123
109 -16 21 -47 56 -69 79 -23 23 -53 63 -66 90 -14 26 -32 55 -41 64 -33 31
-96 146 -108 195 -15 64 -41 201 -41 215 0 5 7 10 16 10 8 0 12 5 9 10 -4 6
-11 8 -16 5 -15 -10 -11 23 16 135 41 172 126 372 196 460 25 32 34 50 25 50
-8 0 -25 -15 -37 -32 -13 -18 -26 -35 -29 -38 -4 -3 -18 -27 -31 -55 -14 -27
-31 -61 -39 -75 -8 -14 -30 -68 -50 -120 -19 -52 -40 -94 -45 -92 -6 1 -19 30
-29 63 -19 60 -19 62 -1 108 10 25 20 82 22 126 4 73 3 78 -10 60 -11 -15 -12
-22 -4 -27 8 -5 7 -8 -3 -8 -8 0 -23 -15 -34 -33 -28 -48 -29 -21 -3 81 14 51
20 92 15 92 -5 0 -6 5 -3 10 3 6 4 10 1 10 -3 0 -6 -1 -7 -2z m31 -198 c0 -5
-5 -10 -11 -10 -5 0 -7 5 -4 10 3 6 8 10 11 10 2 0 4 -4 4 -10z m-40 -34 c0
-3 -4 -8 -10 -11 -5 -3 -10 -1 -10 4 0 6 5 11 10 11 6 0 10 -2 10 -4z m16
-187 c21 -68 32 -139 23 -139 -5 0 -9 2 -9 4 0 3 -11 46 -24 96 -15 54 -20 90
-14 88 6 -2 17 -24 24 -49z m59 -1248 c3 -5 2 -12 -3 -15 -5 -3 -9 1 -9 9 0
17 3 19 12 6z m30 -1 c3 -5 1 -10 -4 -10 -6 0 -11 5 -11 10 0 6 2 10 4 10 3 0
8 -4 11 -10z m-55 -4 c0 -3 -4 -8 -10 -11 -5 -3 -10 -1 -10 4 0 6 5 11 10 11
6 0 10 -2 10 -4z m100 -16 c0 -5 -2 -10 -4 -10 -3 0 -8 5 -11 10 -3 6 -1 10 4
10 6 0 11 -4 11 -10z m50 0 c8 -5 11 -13 6 -17 -5 -4 -11 -2 -13 5 -3 6 -9 10
-14 6 -5 -3 -9 0 -9 5 0 13 10 14 30 1z m90 -10 c0 -5 -4 -10 -10 -10 -5 0
-10 5 -10 10 0 6 5 10 10 10 6 0 10 -4 10 -10z m-43 -26 c-3 -3 -12 -4 -19 -1
-8 3 -5 6 6 6 11 1 17 -2 13 -5z m26 -36 c-9 -11 -19 -15 -21 -9 -4 13 20 40
31 34 5 -3 0 -14 -10 -25z m79 13 c-8 -4 -13 -11 -12 -15 1 -4 -1 -12 -4 -19
-3 -9 -1 26 3 41 1 1 7 2 14 2 9 0 9 -2 -1 -9z m-42 -31 c0 -5 -5 -10 -11 -10
-5 0 -7 5 -4 10 3 6 8 10 11 10 2 0 4 -4 4 -10z m-37 -51 c-4 -15 -8 -17 -14
-8 -6 11 4 28 18 29 0 0 -1 -9 -4 -21z m25 -24 c-3 -3 -9 2 -12 12 -6 14 -5
15 5 6 7 -7 10 -15 7 -18z m39 10 c0 -8 -4 -12 -9 -9 -5 3 -6 10 -3 15 9 13
12 11 12 -6z m-62 -24 c3 -5 2 -12 -3 -15 -5 -3 -9 1 -9 9 0 17 3 19 12 6z
m-14 -54 c-10 -9 -11 -8 -5 6 3 10 9 15 12 12 3 -3 0 -11 -7 -18z m-55 -95
c-12 -11 -17 7 -9 34 l8 29 3 -28 c2 -16 1 -31 -2 -35z"/>
<path d="M2480 9841 c0 -5 5 -13 10 -16 6 -3 10 -2 10 4 0 5 -4 13 -10 16 -5
3 -10 2 -10 -4z"/>
<path d="M2545 9806 c22 -20 52 -39 66 -42 20 -4 33 -19 50 -56 29 -62 37 -49
9 15 -15 34 -27 47 -42 47 -11 0 -43 16 -72 36 l-51 36 40 -36z"/>
<path d="M3051 9818 c-14 -23 -14 -23 8 -4 22 20 25 26 13 26 -4 0 -13 -10
-21 -22z"/>
<path d="M4118 9833 c7 -3 16 -2 19 1 4 3 -2 6 -13 5 -11 0 -14 -3 -6 -6z"/>
<path d="M3815 9813 c30 -28 75 -57 75 -47 0 5 -17 20 -38 34 -48 33 -62 37
-37 13z"/>
<path d="M4032 9813 c-7 -7 -9 -13 -4 -13 4 0 16 6 26 13 14 10 15 14 4 14 -7
0 -19 -6 -26 -14z"/>
<path d="M2770 9780 c0 -5 5 -10 11 -10 5 0 7 5 4 10 -3 6 -8 10 -11 10 -2 0
-4 -4 -4 -10z"/>
<path d="M3935 9770 c-16 -11 -26 -20 -22 -20 11 0 67 29 67 35 0 10 -16 4
-45 -15z"/>
<path d="M2955 9610 c-3 -5 1 -10 9 -10 9 0 16 5 16 10 0 6 -4 10 -9 10 -6 0
-13 -4 -16 -10z"/>
<path d="M2912 9530 c0 -14 2 -19 5 -12 2 6 2 18 0 25 -3 6 -5 1 -5 -13z"/>
<path d="M2875 9449 c-9 -41 0 -48 13 -10 6 17 7 33 2 36 -5 3 -11 -9 -15 -26z"/>
<path d="M2920 9451 c0 -5 -3 -17 -7 -27 -4 -11 -3 -15 4 -11 14 9 24 47 12
47 -5 0 -9 -4 -9 -9z"/>
<path d="M3261 9433 c1 -22 2 -23 6 -8 3 11 10 23 17 27 7 5 5 8 -6 8 -13 0
-18 -7 -17 -27z"/>
<path d="M2901 9384 c-1 -11 -4 -24 -8 -28 -8 -8 -14 -31 -18 -66 -1 -14 -5
-38 -9 -55 -15 -68 -15 -74 -1 -69 8 3 16 31 21 67 11 90 10 90 19 119 4 15 5
33 2 40 -3 7 -6 4 -6 -8z"/>
<path d="M3259 9393 c0 -5 -2 -17 -4 -28 -2 -11 -9 -49 -15 -85 -18 -99 -30
-141 -39 -135 -5 2 -17 34 -26 70 -12 42 -21 61 -26 53 -4 -7 -4 -15 0 -18 4
-3 13 -27 20 -55 7 -27 16 -54 21 -60 11 -14 -10 -147 -22 -143 -6 2 -17 22
-25 43 -8 22 -21 54 -30 72 -9 18 -13 41 -10 52 3 12 3 21 1 21 -11 0 -25 -46
-30 -98 -5 -50 -3 -60 11 -66 22 -8 39 2 27 17 -17 22 -21 46 -9 53 7 4 9 4 5
-1 -4 -4 6 -34 22 -66 17 -32 30 -64 29 -71 0 -7 -5 -1 -11 14 -6 19 -20 31
-41 36 -39 10 -43 1 -25 -54 9 -26 19 -39 31 -38 21 2 22 -24 4 -69 -8 -18
-19 -60 -27 -94 -7 -35 -16 -63 -21 -63 -9 0 -91 95 -107 125 -11 18 -11 19
-12 2 0 -11 20 -45 44 -77 25 -32 52 -73 61 -90 9 -17 22 -29 30 -28 8 2 27
-12 43 -31 33 -39 58 -35 47 8 -9 37 -25 52 -49 49 -24 -3 -25 6 -12 87 16
109 37 154 49 108 4 -14 5 -13 6 4 1 15 13 28 36 39 39 18 67 53 91 111 16 37
16 38 -2 22 -15 -13 -95 -49 -108 -49 -6 0 24 165 36 194 6 15 21 38 32 49 19
18 19 19 2 13 -19 -7 -20 4 -1 84 11 49 17 100 11 100 -3 0 -6 -3 -7 -7z m1
-438 c-14 -17 -45 -21 -35 -5 4 6 11 8 16 5 5 -4 9 -1 9 4 0 6 5 11 11 11 8 0
8 -5 -1 -15z m-120 -25 c0 -5 -7 -7 -15 -4 -8 4 -12 10 -9 15 6 11 24 2 24
-11z m71 -23 c-7 -7 -14 -8 -21 -1 -6 6 -2 10 12 11 16 2 18 -1 9 -10z"/>
<path d="M3200 9349 c0 -5 5 -7 10 -4 6 3 10 8 10 11 0 2 -4 4 -10 4 -5 0 -10
-5 -10 -11z"/>
<path d="M3301 9334 c0 -11 3 -14 6 -6 3 7 2 16 -1 19 -3 4 -6 -2 -5 -13z"/>
<path d="M3302 9235 c0 -16 2 -22 5 -12 2 9 2 23 0 30 -3 6 -5 -1 -5 -18z"/>
<path d="M3300 9180 c0 -10 -12 -32 -27 -48 -59 -61 -66 -75 -17 -32 38 33 52
53 53 73 1 15 -1 27 -4 27 -3 0 -5 -9 -5 -20z"/>
<path d="M2859 9133 c-4 -43 4 -108 12 -111 5 -2 7 -8 4 -13 -3 -4 4 -25 15
-46 11 -21 18 -29 16 -18 -19 76 -26 116 -26 158 0 26 -4 47 -10 47 -5 0 -11
-8 -11 -17z"/>
<path d="M3957 9108 c15 -25 29 -45 31 -43 6 5 -26 61 -43 75 -9 8 -4 -7 12
-32z"/>
<path d="M3933 9075 c0 -22 2 -30 4 -17 2 12 2 30 0 40 -3 9 -5 -1 -4 -23z"/>
<path d="M3302 9055 c0 -16 2 -22 5 -12 2 9 2 23 0 30 -3 6 -5 -1 -5 -18z"/>
<path d="M3860 9039 c0 -5 5 -7 10 -4 6 3 10 8 10 11 0 2 -4 4 -10 4 -5 0 -10
-5 -10 -11z"/>
<path d="M2265 9020 c-4 -6 20 -54 52 -107 73 -122 71 -117 37 -109 l-29 7 23
-16 c14 -10 32 -15 46 -11 28 7 40 -2 25 -20 -6 -7 -6 -14 -1 -18 6 -3 13 2
16 11 6 16 -9 38 -61 89 -26 26 -82 135 -76 150 5 16 -23 38 -32 24z"/>
<path d="M3944 8980 c2 -30 5 -70 5 -87 1 -18 5 -33 9 -33 9 0 -4 159 -13 169
-4 3 -4 -19 -1 -49z"/>
<path d="M4016 9000 c7 -28 12 -35 18 -29 2 2 -2 15 -10 29 l-15 25 7 -25z"/>
<path d="M2841 8964 c0 -11 3 -14 6 -6 3 7 2 16 -1 19 -3 4 -6 -2 -5 -13z"/>
<path d="M4051 8920 c10 -21 19 -47 20 -57 0 -10 3 -13 6 -6 6 15 -26 103 -37
103 -5 0 0 -18 11 -40z"/>
<path d="M3870 8936 c0 -13 62 -98 67 -92 3 2 -11 26 -31 52 -20 26 -36 44
-36 40z"/>
<path d="M2870 8905 c0 -8 4 -15 10 -15 5 0 7 7 4 15 -4 8 -8 15 -10 15 -2 0
-4 -7 -4 -15z"/>
<path d="M2926 8866 c4 -11 0 -13 -18 -9 -21 6 -22 5 -9 -10 10 -13 17 -15 27
-6 16 13 19 39 4 39 -5 0 -7 -6 -4 -14z"/>
<path d="M3804 8845 c-3 -20 -4 -39 0 -42 3 -4 6 5 6 18 0 14 5 30 11 36 7 7
7 13 0 17 -6 4 -13 -8 -17 -29z"/>
<path d="M2496 8851 c-4 -6 -2 -19 5 -27 9 -12 9 -13 -2 -9 -19 7 -39 -7 -44
-31 -2 -10 -8 -33 -13 -49 -14 -44 -3 -92 23 -109 22 -15 25 -14 54 19 17 19
39 35 50 35 32 0 35 20 4 21 -15 1 -35 2 -43 3 -8 0 -26 -6 -39 -14 -24 -14
-24 -14 -18 10 4 14 7 31 7 38 0 16 43 33 94 38 41 4 76 24 42 24 -39 0 -94
23 -103 43 -7 15 -12 17 -17 8z"/>
<path d="M3852 8831 c7 -10 33 -34 57 -52 50 -38 69 -80 70 -151 1 -27 6 -48
11 -48 6 0 8 15 4 39 -5 34 -1 51 33 113 43 80 60 119 44 103 -5 -5 -25 -41
-45 -79 -20 -40 -37 -64 -40 -55 -14 45 -24 103 -19 115 2 7 2 18 -2 25 -14
22 -23 -12 -13 -48 5 -19 8 -36 6 -38 -2 -2 -28 18 -58 45 -57 54 -69 61 -48
31z"/>
<path d="M2287 8829 c7 -7 15 -10 18 -7 3 3 -2 9 -12 12 -14 6 -15 5 -6 -5z"/>
<path d="M3148 8765 c-2 -25 0 -45 4 -45 5 0 8 13 8 29 0 16 3 36 6 45 3 9 2
16 -4 16 -5 0 -12 -20 -14 -45z"/>
<path d="M2696 8780 c13 -13 106 -21 98 -8 -4 6 -20 8 -36 6 -16 -3 -31 -1
-34 4 -3 4 -13 8 -22 8 -11 0 -13 -3 -6 -10z"/>
<path d="M3795 8780 c-3 -5 -1 -10 4 -10 6 0 11 5 11 10 0 6 -2 10 -4 10 -3 0
-8 -4 -11 -10z"/>
<path d="M4125 8753 c8 -18 18 -33 20 -33 10 0 4 16 -16 40 l-20 25 16 -32z"/>
<path d="M2500 8734 c0 -8 5 -12 10 -9 6 4 8 11 5 16 -9 14 -15 11 -15 -7z"/>
<path d="M3791 8722 c-1 -19 51 -87 130 -170 50 -51 72 -83 76 -105 2 -18 8
-48 14 -67 5 -19 9 -48 9 -63 l0 -28 -41 33 c-113 92 -179 152 -179 164 0 8
-4 14 -9 14 -24 0 7 -55 53 -93 28 -23 57 -47 63 -54 7 -6 18 -13 25 -16 7 -2
10 -7 7 -11 -4 -4 -37 19 -75 51 -40 34 -65 49 -60 38 5 -11 13 -36 18 -55 18
-62 82 -138 153 -182 53 -33 61 -45 69 -98 18 -117 18 -130 3 -130 -8 0 -20 7
-27 15 -7 8 -17 15 -23 15 -6 0 -18 6 -26 14 -9 7 -41 26 -71 42 -30 16 -73
41 -94 56 -42 30 -66 37 -46 13 7 -8 16 -12 21 -9 5 3 9 0 9 -5 0 -6 6 -11 13
-11 7 0 18 -9 25 -20 7 -11 21 -20 33 -20 13 0 20 -6 18 -17 -3 -30 1 -43 11
-43 6 0 10 7 10 15 0 20 12 19 37 -4 12 -11 24 -17 27 -14 3 4 15 -2 25 -11
20 -18 60 -42 117 -71 18 -9 46 -32 63 -51 17 -19 38 -34 46 -34 8 0 15 -6 15
-14 0 -12 28 -31 36 -23 7 7 -97 112 -112 112 -10 0 -19 6 -21 13 -3 6 0 12 5
12 6 0 6 18 0 48 -15 79 -19 232 -5 229 7 -1 11 4 9 11 -1 6 2 12 7 12 4 0 19
33 32 73 18 56 23 93 23 167 -1 52 -4 109 -7 125 -12 65 -18 84 -31 111 -14
25 -15 21 -10 -62 5 -77 2 -101 -21 -179 -14 -49 -38 -115 -53 -145 l-26 -55
-4 44 c-2 27 4 66 17 100 28 79 53 172 48 178 -3 2 -8 -4 -10 -14 -72 -247
-77 -251 -96 -79 -10 83 -25 137 -21 71 1 -16 2 -34 1 -40 -2 -15 -179 179
-192 210 -4 11 -8 14 -8 7z m396 -284 c-3 -8 -6 -5 -6 6 -1 11 2 17 5 13 3 -3
4 -12 1 -19z m-238 -165 c2 -1 -10 -1 -27 0 -18 1 -27 6 -23 12 9 12 -24 46
-35 37 -4 -4 -4 -1 0 6 4 6 3 12 -1 12 -5 0 -14 10 -22 23 -8 12 13 -2 45 -32
32 -30 61 -56 63 -58z m216 47 c-3 -5 -12 -10 -18 -10 -7 0 -6 4 3 10 19 12
23 12 15 0z m-146 -47 c2 -2 -1 -3 -7 -3 -6 0 -24 12 -39 26 l-28 26 35 -23
c19 -12 37 -24 39 -26z m91 3 c0 -2 -8 -10 -17 -17 -16 -13 -17 -12 -4 4 13
16 21 21 21 13z m-155 -36 c-3 -5 -11 -10 -16 -10 -6 0 -7 5 -4 10 3 6 11 10
16 10 6 0 7 -4 4 -10z m168 -30 c-19 -32 -36 -41 -26 -12 6 14 31 41 41 42 2
0 -5 -13 -15 -30z m-133 -5 c11 -13 10 -14 -4 -9 -9 3 -16 10 -16 15 0 13 6
11 20 -6z m44 -1 c10 -25 1 -27 -19 -4 -15 17 -16 20 -3 20 9 0 19 -7 22 -16z
m61 -91 c7 -27 17 -108 19 -145 1 -9 -3 -18 -9 -18 -5 -1 -16 32 -25 72 -9 40
-19 79 -24 87 -5 8 -3 16 5 22 22 14 26 11 34 -18z"/>
<path d="M2658 8703 c7 -3 16 -2 19 1 4 3 -2 6 -13 5 -11 0 -14 -3 -6 -6z"/>
<path d="M2700 8700 c8 -5 24 -9 35 -9 l20 0 -20 9 c-11 5 -27 9 -35 9 -13 1
-13 0 0 -9z"/>
<path d="M3002 8660 c0 -14 2 -19 5 -12 2 6 2 18 0 25 -3 6 -5 1 -5 -13z"/>
<path d="M3130 8671 c0 -6 4 -12 8 -15 5 -3 9 1 9 9 0 8 -4 15 -9 15 -4 0 -8
-4 -8 -9z"/>
<path d="M3776 8645 c-3 -8 -1 -15 4 -15 6 0 10 7 10 15 0 8 -2 15 -4 15 -2 0
-6 -7 -10 -15z"/>
<path d="M3781 8604 c0 -11 3 -14 6 -6 3 7 2 16 -1 19 -3 4 -6 -2 -5 -13z"/>
<path d="M2302 8574 c-8 -8 -21 -12 -30 -9 -11 3 -22 -3 -30 -16 -12 -18 -11
-19 7 -10 25 14 34 14 26 1 -3 -5 -3 -10 1 -10 9 0 44 41 44 52 0 11 -3 10
-18 -8z"/>
<path d="M3775 8560 c-3 -5 -1 -10 4 -10 6 0 11 5 11 10 0 6 -2 10 -4 10 -3 0
-8 -4 -11 -10z"/>
<path d="M3121 8534 c0 -11 3 -14 6 -6 3 7 2 16 -1 19 -3 4 -6 -2 -5 -13z"/>
<path d="M3167 8526 c-3 -8 2 -16 14 -19 10 -3 19 -13 19 -24 0 -12 8 -18 23
-19 22 -2 22 0 -11 37 -40 45 -38 43 -45 25z"/>
<path d="M2230 8515 c-14 -8 -19 -14 -12 -15 7 0 10 -5 7 -10 -4 -6 -10 -8
-15 -5 -4 3 -14 -2 -21 -11 -12 -14 -11 -16 5 -13 10 2 30 19 44 37 28 36 27
37 -8 17z"/>
<path d="M2359 8503 c-13 -16 -12 -17 4 -4 16 13 21 21 13 21 -2 0 -10 -8 -17
-17z"/>
<path d="M3280 8431 c0 -6 5 -13 10 -16 6 -3 10 1 10 9 0 9 -4 16 -10 16 -5 0
-10 -4 -10 -9z"/>
<path d="M3231 8404 c0 -11 3 -14 6 -6 3 7 2 16 -1 19 -3 4 -6 -2 -5 -13z"/>
<path d="M3330 8393 c0 -12 69 -65 79 -61 5 2 -11 18 -35 36 -24 18 -44 29
-44 25z"/>
<path d="M3271 8364 c0 -11 3 -14 6 -6 3 7 2 16 -1 19 -3 4 -6 -2 -5 -13z"/>
<path d="M4545 8329 c-4 -6 -5 -12 -2 -15 2 -3 7 2 10 11 7 17 1 20 -8 4z"/>
<path d="M4576 8302 c-2 -4 -7 -25 -11 -47 -4 -22 -14 -65 -21 -95 -8 -30 -14
-63 -13 -75 1 -19 10 16 42 158 14 63 15 77 3 59z"/>
<path d="M4520 8274 c0 -8 5 -12 10 -9 6 3 10 10 10 16 0 5 -4 9 -10 9 -5 0
-10 -7 -10 -16z"/>
<path d="M3416 8271 c-4 -7 -5 -15 -2 -18 9 -9 19 4 14 18 -4 11 -6 11 -12 0z"/>
<path d="M3455 8260 c-3 -5 -1 -10 4 -10 6 0 11 5 11 10 0 6 -2 10 -4 10 -3 0
-8 -4 -11 -10z"/>
<path d="M4505 8240 c-3 -5 -1 -10 4 -10 6 0 11 5 11 10 0 6 -2 10 -4 10 -3 0
-8 -4 -11 -10z"/>
<path d="M3575 8228 c11 -6 23 -16 27 -22 5 -7 8 -8 8 0 0 15 -22 34 -39 34
-12 -1 -11 -4 4 -12z"/>
<path d="M3497 8223 c-12 -11 -8 -23 8 -23 8 0 15 7 15 15 0 16 -12 20 -23 8z"/>
<path d="M4482 8200 c-6 -10 -8 -21 -3 -24 5 -3 11 4 14 16 8 29 4 32 -11 8z"/>
<path d="M3630 8190 c0 -5 5 -10 11 -10 5 0 7 5 4 10 -3 6 -8 10 -11 10 -2 0
-4 -4 -4 -10z"/>
<path d="M3452 8178 c10 -28 301 -209 358 -223 14 -3 36 -14 50 -25 l24 -18
-39 -7 c-22 -4 -58 -11 -79 -15 -29 -6 -47 -5 -69 6 -16 9 -31 13 -34 10 -3
-2 -17 0 -31 5 -32 12 -82 18 -82 10 0 -3 29 -21 65 -40 35 -19 63 -36 62 -37
-1 -2 -16 -5 -32 -8 -17 -3 -43 -10 -60 -14 -22 -7 -39 -4 -65 9 -19 10 -51
21 -70 24 -34 5 -33 4 6 -9 59 -20 85 -36 79 -47 -9 -14 -97 -10 -125 6 -14 8
-32 14 -40 14 -8 0 5 -9 28 -20 24 -11 42 -22 40 -25 -3 -2 -50 -15 -106 -29
-99 -25 -186 -54 -179 -61 1 -2 32 6 67 17 36 11 124 35 195 54 72 18 147 41
168 50 22 9 46 15 54 13 21 -4 -39 -78 -89 -110 -58 -36 -48 -43 32 -23 8 2
15 4 15 5 0 1 7 3 16 5 32 6 95 53 119 89 14 20 30 36 35 37 6 0 19 2 30 5 11
2 60 4 110 4 97 1 191 -22 212 -50 6 -9 33 -34 60 -55 31 -26 41 -31 28 -15
-38 48 -116 120 -125 115 -4 -3 -32 11 -62 31 -29 20 -78 50 -108 67 -30 17
-68 40 -85 52 -16 12 -82 49 -145 82 -64 33 -137 76 -164 96 -49 38 -71 46
-64 25z m461 -299 c63 -17 40 -34 -43 -32 -41 1 -82 -3 -91 -8 -13 -7 -21 -5
-28 8 -9 16 -3 19 47 29 75 16 71 15 115 3z m-207 -71 c4 -6 3 -8 -4 -4 -6 3
-15 -2 -21 -11 -5 -10 -13 -15 -17 -11 -7 8 13 38 27 38 4 0 11 -5 15 -12z
m-63 -43 c-3 -9 -8 -14 -10 -11 -3 3 -2 9 2 15 9 16 15 13 8 -4z m27 -15 c0
-5 -2 -10 -4 -10 -3 0 -8 5 -11 10 -3 6 -1 10 4 10 6 0 11 -4 11 -10z m-40
-14 c0 -3 -4 -8 -10 -11 -5 -3 -10 -1 -10 4 0 6 5 11 10 11 6 0 10 -2 10 -4z"/>
<path d="M3550 8180 c0 -5 5 -10 11 -10 5 0 7 5 4 10 -3 6 -8 10 -11 10 -2 0
-4 -4 -4 -10z"/>
<path d="M3633 8136 c4 -10 7 -22 7 -27 0 -5 4 -9 9 -9 12 0 2 38 -12 47 -7 4
-8 0 -4 -11z"/>
<path d="M3710 8141 c0 -5 7 -12 16 -15 14 -5 15 -4 4 9 -14 17 -20 19 -20 6z"/>
<path d="M4460 8140 c0 -5 5 -10 10 -10 6 0 10 5 10 10 0 6 -4 10 -10 10 -5 0
-10 -4 -10 -10z"/>
<path d="M4605 8141 c-3 -5 -1 -12 5 -16 5 -3 10 1 10 9 0 18 -6 21 -15 7z"/>
<path d="M4460 8098 c0 -19 2 -20 10 -8 13 19 13 30 0 30 -5 0 -10 -10 -10
-22z"/>
<path d="M2615 8100 c-3 -5 -1 -10 4 -10 6 0 11 5 11 10 0 6 -2 10 -4 10 -3 0
-8 -4 -11 -10z"/>
<path d="M4603 8076 c-7 -6 -24 -22 -38 -36 l-25 -25 0 23 c0 14 -4 20 -10 17
-6 -4 -8 -16 -5 -26 4 -11 2 -25 -3 -32 -6 -7 -12 -30 -14 -52 l-3 -40 -34 48
c-19 26 -39 47 -44 47 -12 0 -3 -116 12 -152 6 -16 15 -28 20 -28 5 0 11 -9
14 -20 6 -24 -11 -161 -21 -172 -4 -4 -43 26 -86 67 -44 41 -83 72 -87 69 -9
-5 150 -160 161 -157 5 2 14 -6 20 -17 6 -11 15 -18 21 -15 5 4 9 2 9 -3 0 -5
12 -31 26 -56 19 -34 30 -44 37 -37 8 8 5 15 -9 26 -10 8 -15 15 -10 15 5 0 3
7 -4 15 -9 10 -10 35 -5 86 5 52 4 70 -4 65 -6 -4 -11 -17 -11 -29 -1 -12 -7
-33 -15 -47 -14 -24 -14 -24 -11 15 14 147 20 184 28 179 6 -4 8 -28 6 -55 -3
-27 -1 -49 2 -49 4 0 10 21 12 48 4 32 17 64 42 102 20 31 36 67 36 83 l0 28
-37 -30 c-21 -17 -40 -31 -44 -31 -3 0 -2 23 2 52 7 42 16 58 50 90 23 21 40
40 38 42 -2 2 -10 -1 -16 -8z m-133 -166 c0 -5 -4 -10 -10 -10 -5 0 -10 5 -10
10 0 6 5 10 10 10 6 0 10 -4 10 -10z m-2 -45 c-3 -3 -9 2 -12 12 -6 14 -5 15
5 6 7 -7 10 -15 7 -18z"/>
<path d="M4460 8041 c4 -16 13 -38 19 -48 9 -16 10 -16 11 -1 0 9 -4 20 -10
23 -5 3 -10 17 -10 31 0 13 -4 24 -9 24 -6 0 -6 -12 -1 -29z"/>
<path d="M2684 8037 c-21 -4 -40 -10 -43 -13 -6 -6 89 3 142 12 45 9 32 -16
-53 -101 -44 -43 -108 -116 -142 -161 -33 -45 -66 -81 -72 -80 -6 2 -8 1 -3
-1 11 -7 8 -25 -6 -42 -8 -9 -24 -34 -36 -56 -24 -42 -25 -43 29 22 5 7 10 15
10 18 0 11 83 126 111 155 16 15 29 32 29 37 0 11 154 173 165 173 14 0 -6
-144 -31 -222 -22 -67 -29 -78 -56 -87 -17 -6 -29 -14 -26 -17 4 -3 19 1 36
10 37 19 71 96 82 185 16 124 18 171 6 173 -32 4 -109 2 -142 -5z"/>
<path d="M2577 8011 c-37 -17 -79 -61 -58 -61 5 0 12 8 15 18 6 16 71 49 89
44 4 -1 7 3 7 8 0 13 -8 12 -53 -9z"/>
<path d="M2497 7918 c-9 -31 -2 -33 11 -3 6 14 8 25 3 25 -5 0 -11 -10 -14
-22z"/>
<path d="M4057 7891 c-4 -17 -3 -21 5 -13 5 5 8 16 6 23 -3 8 -7 3 -11 -10z"/>
<path d="M4080 7861 c0 -12 5 -21 10 -21 6 0 10 6 10 14 0 8 -4 18 -10 21 -5
3 -10 -3 -10 -14z"/>
<path d="M3380 7866 c0 -2 7 -6 15 -10 8 -3 15 -1 15 4 0 6 -7 10 -15 10 -8 0
-15 -2 -15 -4z"/>
<path d="M2542 7850 c-18 -4 -36 -11 -39 -14 -9 -8 58 5 77 15 18 10 7 10 -38
-1z"/>
<path d="M2470 7840 c0 -5 5 -10 11 -10 5 0 7 5 4 10 -3 6 -8 10 -11 10 -2 0
-4 -4 -4 -10z"/>
<path d="M3305 7830 c-7 -12 2 -12 30 0 19 8 19 9 -2 9 -12 1 -25 -3 -28 -9z"/>
<path d="M5020 7785 c0 -8 2 -15 4 -15 2 0 6 7 10 15 3 8 1 15 -4 15 -6 0 -10
-7 -10 -15z"/>
<path d="M2626 7763 c-14 -70 -17 -108 -8 -93 11 17 27 120 19 120 -3 0 -8
-12 -11 -27z"/>
<path d="M3210 7765 c-11 -13 -10 -14 4 -9 9 3 16 10 16 15 0 13 -6 11 -20 -6z"/>
<path d="M3478 7725 c-21 -24 -38 -46 -38 -49 0 -3 15 -5 33 -5 28 2 29 2 5 6
l-26 4 41 38 c22 21 36 40 31 43 -5 3 -26 -13 -46 -37z"/>
<path d="M4975 7749 c-4 -6 -5 -12 -2 -15 2 -3 7 2 10 11 7 17 1 20 -8 4z"/>
<path d="M5011 7724 c-5 -22 -12 -59 -16 -84 -9 -70 12 -25 24 50 12 72 7 92
-8 34z"/>
<path d="M3130 7705 c-13 -14 -21 -25 -17 -25 3 0 17 11 31 25 14 14 22 25 17
25 -4 0 -18 -11 -31 -25z"/>
<path d="M5053 7695 c0 -22 2 -30 4 -17 2 12 2 30 0 40 -3 9 -5 -1 -4 -23z"/>
<path d="M2427 7689 c-3 -13 -1 -19 6 -16 15 5 22 37 9 37 -5 0 -12 -9 -15
-21z"/>
<path d="M3323 7679 c-11 -5 2 -8 35 -8 28 -1 52 1 52 3 0 8 -69 12 -87 5z"/>
<path d="M3183 7673 c-18 -2 -33 -8 -33 -13 0 -7 24 -4 95 13 15 4 14 5 -5 4
-14 0 -40 -2 -57 -4z"/>
<path d="M4389 7522 c134 -134 168 -175 234 -279 42 -66 84 -138 94 -160 10
-21 20 -40 23 -43 3 -3 13 -16 22 -30 13 -21 14 -29 3 -43 -12 -17 -17 -17
-86 3 -41 11 -111 29 -157 40 -83 20 -117 36 -160 74 -19 17 -22 18 -16 3 8
-22 -14 -23 -43 -2 -28 19 -43 0 -17 -20 18 -14 18 -14 -1 -16 -11 -1 -23 -1
-27 0 -5 0 -8 -3 -8 -9 0 -5 -7 -10 -15 -10 -8 0 -15 -6 -15 -14 0 -8 -7 -16
-15 -20 -8 -3 -15 -10 -15 -16 0 -6 11 -3 25 6 24 16 25 15 34 -7 7 -18 10
-19 10 -6 2 33 21 17 21 -18 0 -35 18 -85 30 -85 4 0 10 9 13 20 7 25 33 28
177 15 135 -11 311 -60 344 -96 14 -15 59 -145 76 -222 6 -27 13 -88 16 -135
3 -48 9 -98 13 -112 4 -14 6 -45 4 -69 -2 -28 1 -41 6 -35 26 25 3 300 -36
434 -36 128 -86 266 -99 276 -8 6 -14 18 -14 27 0 8 -11 28 -23 44 -23 27 -45
64 -66 111 -6 12 -20 32 -31 44 -11 12 -20 27 -20 33 0 7 -18 37 -40 69 -22
31 -40 61 -40 66 0 6 -4 10 -10 10 -5 0 -10 15 -10 33 0 25 -3 29 -10 17 -9
-13 -14 -10 -32 14 -12 15 -28 33 -35 40 -16 13 -70 68 -105 107 -13 14 -38
35 -56 45 -17 10 -35 27 -38 37 -3 11 -12 16 -20 13 -8 -3 -14 -1 -14 3 0 5
-6 11 -14 14 -8 3 56 -65 143 -151z m1 -495 c19 -13 41 -22 49 -19 10 3 12 -1
8 -18 -5 -20 -4 -21 11 -7 21 19 61 16 161 -13 97 -27 178 -66 192 -92 15 -28
7 -31 -32 -15 -74 32 -168 56 -244 63 -91 9 -84 8 -110 17 -11 3 -31 8 -45 11
-55 10 -80 25 -80 49 0 15 9 28 23 35 30 15 28 15 67 -11z"/>
<path d="M4370 6997 c0 -10 -5 -14 -15 -11 -8 4 -15 1 -15 -5 0 -17 30 -13 37
4 3 9 3 19 -1 22 -3 4 -6 -1 -6 -10z"/>
<path d="M3118 7662 c-10 -2 -18 -8 -18 -13 0 -11 11 -11 30 1 18 11 11 18
-12 12z"/>
<path d="M2419 7628 c-1 -32 -5 -59 -14 -90 -8 -30 10 -39 33 -16 21 21 13 32
-10 12 -21 -19 -21 -19 -13 1 10 27 19 115 11 115 -3 0 -6 -10 -7 -22z"/>
<path d="M5050 7640 c0 -5 5 -10 11 -10 5 0 7 5 4 10 -3 6 -8 10 -11 10 -2 0
-4 -4 -4 -10z"/>
<path d="M2570 7610 c-8 -5 -12 -12 -9 -15 4 -3 12 1 19 10 14 17 11 19 -10 5z"/>
<path d="M4905 7579 c-4 -6 -5 -12 -2 -15 2 -3 7 2 10 11 7 17 1 20 -8 4z"/>
<path d="M4972 7557 c-7 -19 -12 -42 -11 -53 0 -10 7 3 15 30 17 55 14 72 -4
23z"/>
<path d="M4430 7544 c0 -8 5 -12 10 -9 6 4 8 11 5 16 -9 14 -15 11 -15 -7z"/>
<path d="M5038 7523 c-30 -49 -78 -100 -78 -82 0 9 -7 22 -15 29 -20 16 -19 5
2 -30 l16 -28 34 41 c19 23 45 54 58 70 13 15 18 27 11 27 -6 0 -19 -12 -28
-27z"/>
<path d="M4910 7500 c0 -5 5 -10 11 -10 5 0 7 5 4 10 -3 6 -8 10 -11 10 -2 0
-4 -4 -4 -10z"/>
<path d="M4867 7483 c-4 -3 -7 -11 -7 -17 0 -6 5 -5 12 2 6 6 9 14 7 17 -3 3
-9 2 -12 -2z"/>
<path d="M5071 7474 c0 -11 3 -14 6 -6 3 7 2 16 -1 19 -3 4 -6 -2 -5 -13z"/>
<path d="M4570 7468 c0 -9 5 -18 11 -20 5 -2 11 -12 13 -23 2 -11 6 -19 10
-18 22 6 22 11 -4 43 -20 24 -30 30 -30 18z"/>
<path d="M4550 7446 c0 -8 4 -17 9 -20 5 -4 7 3 4 14 -6 23 -13 26 -13 6z"/>
<path d="M5075 7440 c-3 -5 -1 -10 4 -10 6 0 11 5 11 10 0 6 -2 10 -4 10 -3 0
-8 -4 -11 -10z"/>
<path d="M5073 7407 c2 -7 -25 -42 -60 -77 l-65 -65 7 70 c7 75 -1 86 -11 14
-8 -56 -19 -68 -32 -32 -5 15 -18 37 -27 48 -9 11 -3 -5 13 -37 16 -32 28 -68
26 -85 -1 -15 -2 -39 -3 -52 -1 -20 -6 -15 -37 29 -19 28 -36 65 -36 81 -1 16
-5 29 -9 29 -4 0 -5 -35 -2 -77 3 -59 12 -92 34 -137 29 -58 35 -87 23 -99 -4
-4 -27 34 -53 83 -47 92 -148 240 -164 240 -4 0 -6 4 -3 9 3 4 -4 17 -16 27
-11 11 -19 15 -17 9 17 -38 34 -65 41 -65 5 0 6 -5 3 -11 -4 -6 2 -17 13 -25
28 -19 75 -90 118 -177 75 -153 94 -187 105 -187 7 0 9 15 4 46 -8 64 3 114
25 114 34 0 79 49 95 102 8 28 13 54 10 56 -3 3 -1 10 4 16 11 14 25 73 15 63
-4 -4 -17 -30 -28 -59 -17 -41 -30 -56 -63 -75 l-43 -24 0 56 c0 31 4 54 8 51
8 -5 80 48 94 69 3 5 15 20 26 33 18 20 21 52 5 52 -3 0 -3 -6 0 -13z"/>
<path d="M4840 7394 c0 -8 5 -12 10 -9 6 3 10 10 10 16 0 5 -4 9 -10 9 -5 0
-10 -7 -10 -16z"/>
<path d="M4605 7380 c3 -5 8 -10 11 -10 2 0 4 5 4 10 0 6 -5 10 -11 10 -5 0
-7 -4 -4 -10z"/>
<path d="M4837 7363 c-4 -3 -7 -11 -7 -17 0 -6 5 -5 12 2 6 6 9 14 7 17 -3 3
-9 2 -12 -2z"/>
<path d="M4120 7311 c0 -5 7 -12 16 -15 14 -5 15 -4 4 9 -14 17 -20 19 -20 6z"/>
<path d="M4041 7264 c0 -11 3 -14 6 -6 3 7 2 16 -1 19 -3 4 -6 -2 -5 -13z"/>
<path d="M4210 7276 c0 -2 8 -10 18 -17 15 -13 16 -12 3 4 -13 16 -21 21 -21
13z"/>
<path d="M4250 7246 c0 -2 7 -9 15 -16 9 -7 15 -8 15 -2 0 5 -7 12 -15 16 -8
3 -15 4 -15 2z"/>
<path d="M3750 7233 c0 -6 8 -17 18 -24 16 -13 16 -13 2 6 -8 11 -16 22 -17
24 -2 2 -3 0 -3 -6z"/>
<path d="M4707 7200 c3 -11 10 -23 16 -27 7 -4 8 0 4 11 -4 10 -7 22 -7 27 0
5 -4 9 -9 9 -5 0 -7 -9 -4 -20z"/>
<path d="M4305 7201 c4 -8 8 -30 7 -50 -1 -26 1 -32 8 -21 15 23 12 56 -7 71
-14 12 -16 12 -8 0z"/>
<path d="M4066 7172 c-3 -5 4 -18 16 -28 21 -19 21 -19 8 6 -17 33 -17 33 -24
22z"/>
<path d="M3800 7167 c0 -2 15 -16 33 -33 l32 -29 -29 33 c-28 30 -36 37 -36
29z"/>
<path d="M4947 7018 c-8 -62 1 -161 19 -203 17 -42 30 -42 14 0 -6 15 -11 76
-13 136 -2 113 -10 140 -20 67z"/>
<path d="M3890 6979 c0 -23 66 -79 93 -78 16 0 11 5 -20 19 -23 10 -48 31 -57
47 -10 18 -15 22 -16 12z"/>
<path d="M4210 6960 c0 -5 5 -10 11 -10 5 0 7 5 4 10 -3 6 -8 10 -11 10 -2 0
-4 -4 -4 -10z"/>
<path d="M4112 6916 c-33 -19 -40 -30 -14 -22 34 11 27 -7 -28 -67 -38 -41
-45 -54 -29 -50 20 6 36 25 94 116 25 38 18 45 -23 23z"/>
<path d="M4250 6909 c0 -5 5 -7 10 -4 6 3 10 8 10 11 0 2 -4 4 -10 4 -5 0 -10
-5 -10 -11z"/>
<path d="M4020 6890 c20 -13 43 -13 35 0 -3 6 -16 10 -28 10 -18 0 -19 -2 -7
-10z"/>
<path d="M4193 6861 c0 -11 5 -18 9 -15 4 3 5 11 1 19 -7 21 -12 19 -10 -4z"/>
<path d="M4240 6814 c-24 -18 -47 -31 -51 -29 -3 3 -15 -2 -25 -9 -17 -13 -16
-14 11 -8 45 8 128 64 114 76 -2 2 -24 -11 -49 -30z"/>
<path d="M5895 6810 l-30 -8 27 -1 c15 0 30 4 33 9 3 6 5 9 3 9 -2 -1 -16 -5
-33 -9z"/>
<path d="M5947 6799 c4 -13 8 -18 11 -10 2 7 -1 18 -6 23 -8 8 -9 4 -5 -13z"/>
<path d="M4920 6803 c0 -5 5 -15 10 -23 7 -12 9 -10 7 8 -1 19 -17 33 -17 15z"/>
<path d="M5838 6793 c7 -3 16 -2 19 1 4 3 -2 6 -13 5 -11 0 -14 -3 -6 -6z"/>
<path d="M5790 6779 c0 -5 5 -7 10 -4 6 3 10 8 10 11 0 2 -4 4 -10 4 -5 0 -10
-5 -10 -11z"/>
<path d="M4075 6760 c-3 -5 -1 -10 4 -10 6 0 11 5 11 10 0 6 -2 10 -4 10 -3 0
-8 -4 -11 -10z"/>
<path d="M5715 6760 c-13 -6 -15 -9 -5 -9 8 0 22 4 30 9 18 12 2 12 -25 0z"/>
<path d="M5799 6670 c-57 -55 -101 -100 -97 -100 4 0 33 26 65 58 32 31 79 73
103 93 25 21 42 40 39 43 -3 4 -53 -39 -110 -94z"/>
<path d="M5936 6753 c-6 -14 -5 -15 5 -6 7 7 10 15 7 18 -3 3 -9 -2 -12 -12z"/>
<path d="M4945 6741 c-3 -5 2 -17 11 -25 21 -21 22 -20 16 9 -4 25 -16 32 -27
16z"/>
<path d="M5635 6730 c-3 -6 1 -7 9 -4 18 7 21 14 7 14 -6 0 -13 -4 -16 -10z"/>
<path d="M5715 6719 c-4 -6 -5 -12 -2 -15 2 -3 7 2 10 11 7 17 1 20 -8 4z"/>
<path d="M5011 6684 c0 -11 3 -14 6 -6 3 7 2 16 -1 19 -3 4 -6 -2 -5 -13z"/>
<path d="M5896 6666 c-23 -49 -19 -59 5 -13 11 22 18 41 16 43 -2 3 -12 -11
-21 -30z"/>
<path d="M5533 6683 c-15 -5 -17 -23 -4 -23 5 0 11 7 15 15 3 8 4 15 3 14 -1
0 -8 -3 -14 -6z"/>
<path d="M5701 6683 c-1 -6 -4 -20 -7 -30 -5 -17 -5 -17 6 0 6 10 9 23 6 30
-3 9 -5 9 -5 0z"/>
<path d="M5016 6635 c4 -8 8 -15 10 -15 2 0 4 7 4 15 0 8 -4 15 -10 15 -5 0
-7 -7 -4 -15z"/>
<path d="M5511 6634 c0 -11 3 -14 6 -6 3 7 2 16 -1 19 -3 4 -6 -2 -5 -13z"/>
<path d="M4976 6626 c3 -9 11 -16 16 -16 13 0 5 23 -10 28 -7 2 -10 -2 -6 -12z"/>
<path d="M5670 6576 c-8 -39 -23 -67 -56 -106 -25 -30 -61 -78 -80 -107 -18
-29 -38 -53 -44 -53 -12 0 -12 53 0 140 19 139 19 163 0 75 -11 -52 -19 -125
-18 -172 1 -81 0 -83 -38 -133 -39 -51 -39 -51 -42 -23 -2 15 -2 94 0 175 2
80 0 144 -3 142 -8 -4 -14 -115 -14 -246 0 -92 -1 -96 -15 -70 -11 20 -15 61
-15 162 0 114 3 140 18 163 10 16 23 25 29 21 7 -4 8 -3 4 5 -4 6 -2 20 5 29
7 9 -13 -10 -44 -43 -31 -33 -60 -69 -63 -80 -4 -11 -12 -27 -20 -36 -7 -8
-15 -24 -17 -35 -1 -10 -6 -24 -9 -30 -14 -22 -28 -215 -15 -207 4 2 6 -7 3
-21 -3 -14 -1 -26 3 -26 22 0 -3 -58 -52 -123 -98 -129 -137 -155 -122 -78 4
20 9 59 11 86 2 28 7 92 11 143 7 78 3 196 -11 277 -2 11 -4 34 -5 50 -1 24
-3 27 -11 15 -7 -9 -8 -43 -4 -84 8 -91 8 -411 0 -425 -11 -17 -16 -51 -17
-111 -1 -30 -6 -61 -11 -67 -6 -7 -8 -13 -5 -13 3 0 -3 -31 -13 -68 -11 -38
-22 -83 -25 -100 -3 -17 -10 -44 -16 -59 -6 -15 -13 -39 -16 -53 -2 -13 -8
-29 -12 -35 -4 -5 -14 -26 -22 -45 -7 -19 -30 -64 -51 -100 -21 -36 -38 -71
-38 -78 0 -7 -26 -52 -57 -100 -32 -48 -60 -91 -62 -97 -2 -5 -12 -16 -23 -23
-10 -7 -18 -20 -18 -28 0 -8 -4 -14 -10 -14 -5 0 -42 -48 -81 -107 -39 -60
-83 -120 -97 -135 -14 -15 -23 -30 -20 -33 2 -3 27 6 54 20 27 14 52 25 56 25
3 0 59 25 124 57 94 44 126 56 158 53 87 -5 186 6 186 21 0 5 7 9 15 9 22 0
65 22 65 34 0 6 12 21 28 34 18 16 21 22 9 18 -10 -3 -25 -6 -33 -6 -7 0 -11
-6 -8 -13 2 -7 -4 -13 -16 -14 -22 -2 -27 12 -7 21 6 4 -4 3 -23 0 -19 -3 -65
-9 -102 -13 -53 -5 -65 -4 -57 6 6 7 21 15 32 19 12 3 32 15 43 26 12 10 31
20 43 21 11 1 21 4 21 7 0 3 27 4 60 3 37 -1 60 2 60 8 0 7 -21 9 -57 5 -46
-4 -55 -3 -43 7 9 7 24 32 35 56 10 24 28 47 39 51 21 9 21 9 -1 9 -17 1 -29
-13 -53 -56 -26 -49 -40 -63 -92 -91 -33 -18 -63 -31 -65 -28 -11 11 34 98 57
111 14 8 21 14 17 15 -16 0 -103 -53 -135 -83 -18 -18 -43 -48 -55 -67 -11
-19 -28 -39 -36 -44 -14 -8 -12 -11 7 -15 13 -4 24 -10 24 -16 1 -12 -110 -73
-134 -74 -10 -1 -18 -5 -18 -11 0 -5 -9 -10 -20 -10 -11 0 -20 -4 -20 -9 0 -6
-9 -9 -20 -8 -11 1 -20 3 -20 4 0 12 47 53 61 53 10 0 19 4 21 9 2 5 10 11 18
13 8 2 23 11 34 21 11 10 26 15 33 13 7 -3 13 -1 13 4 0 16 -15 12 -67 -15
-26 -14 -56 -24 -66 -23 -16 3 -13 11 22 58 45 61 110 154 126 179 6 8 22 34
36 56 23 36 62 112 65 125 0 3 14 34 31 70 30 64 67 156 94 234 8 22 32 58 55
82 22 24 71 88 108 143 37 55 72 106 79 113 7 7 27 32 45 56 27 33 40 42 65
43 29 0 30 1 10 9 -37 15 -26 20 32 14 37 -3 55 -1 55 6 0 6 5 8 10 5 30 -18
202 107 186 134 -3 5 2 15 12 22 15 12 16 12 7 -1 -5 -9 0 -5 12 9 29 33 20
40 -15 14 -37 -27 -84 -51 -113 -57 -13 -2 -39 -8 -56 -12 -23 -4 -33 -3 -33
6 0 7 6 10 14 7 8 -3 17 -3 20 1 4 3 15 7 25 9 27 4 103 39 126 58 l20 17 -20
-8 c-66 -25 -218 -74 -221 -71 -5 5 42 70 77 108 15 15 24 30 22 33 -6 5 59
98 106 151 21 24 43 39 64 42 59 8 72 11 101 22 16 7 35 10 41 7 6 -2 19 11
27 30 18 40 13 44 -13 10 -18 -23 -111 -56 -159 -56 -22 0 -23 1 -5 20 12 13
14 20 5 20 -9 0 -10 10 -6 35 11 57 -2 40 -14 -19z m-340 -107 c-7 -11 -14
-18 -17 -15 -3 3 0 12 7 21 18 21 23 19 10 -6z m-13 -54 c-4 -8 -12 -15 -19
-14 -10 0 -10 2 0 6 6 2 12 12 12 21 0 8 3 13 6 9 4 -3 4 -13 1 -22z m-30 -85
c-2 -23 -7 -44 -11 -47 -4 -4 -4 4 -2 18 2 13 5 34 5 47 1 12 4 22 7 22 3 0 4
-18 1 -40z m28 -75 c-2 -14 1 -27 6 -30 5 -4 2 -17 -7 -30 -10 -15 -11 -25 -4
-28 6 -3 5 -4 -2 -3 -19 4 -18 46 1 47 10 0 12 2 4 6 -14 5 -18 63 -4 63 4 0
7 -11 6 -25z m-35 -20 c0 -14 -4 -25 -9 -25 -5 0 -8 8 -6 18 2 9 4 20 4 25 2
19 11 4 11 -18z m0 -79 c0 -19 4 -37 10 -41 5 -3 6 -13 3 -22 -5 -14 -9 -11
-15 12 -15 50 -18 85 -8 85 6 0 10 -15 10 -34z m89 0 c8 -10 8 -16 -1 -24 -10
-8 -13 -4 -14 14 -2 28 -1 29 15 10z m227 -11 c-11 -8 -22 -12 -25 -9 -6 6 19
24 34 24 6 -1 1 -7 -9 -15z m-36 -15 c0 -5 -7 -10 -15 -10 -8 0 -15 -4 -15
-10 0 -5 -9 -14 -20 -20 -14 -7 -20 -7 -20 0 0 15 38 50 55 50 8 0 15 -4 15
-10z m-100 -10 c0 -5 -5 -10 -11 -10 -5 0 -7 5 -4 10 3 6 8 10 11 10 2 0 4 -4
4 -10z m-46 -52 c-3 -4 -9 -8 -15 -8 -5 0 -9 4 -9 8 0 5 7 9 15 9 8 0 12 -4 9
-9z m46 -2 c-7 -7 -14 -6 -21 1 -9 9 -7 12 9 10 14 -1 18 -5 12 -11z m-170
-38 c0 -6 -15 -30 -34 -53 -19 -23 -51 -69 -71 -101 -19 -32 -41 -68 -48 -79
-6 -11 -13 -22 -14 -24 -2 -2 -9 2 -18 9 -9 7 -15 8 -15 2 0 -6 5 -12 12 -14
8 -3 4 -15 -12 -36 -30 -37 -36 -39 -43 -12 -3 11 -1 20 4 20 5 0 9 6 9 13 0
7 14 32 31 55 17 23 28 42 24 42 -3 0 8 15 24 33 17 17 31 35 31 39 0 4 6 13
13 20 7 7 30 34 51 60 35 44 56 53 56 26z m-356 -983 c-4 -8 -8 -15 -10 -15
-2 0 -4 7 -4 15 0 8 4 15 10 15 5 0 7 -7 4 -15z m-34 -19 c0 -2 -8 -10 -17
-17 -16 -13 -17 -12 -4 4 13 16 21 21 21 13z m1 -59 c-8 -8 -11 -7 -11 4 0 20
13 34 18 19 3 -7 -1 -17 -7 -23z m-31 16 c-1 -13 -40 -56 -46 -50 -3 3 5 17
17 31 24 27 29 31 29 19z m180 -63 c-13 -8 -12 -10 3 -10 9 0 17 4 17 8 0 4 9
8 20 8 24 0 25 -5 3 -21 -12 -9 -25 -10 -45 -3 -29 10 -29 28 0 28 15 0 15 -2
2 -10z m-66 -8 c2 -4 -13 -8 -34 -7 -21 0 -36 3 -33 8 6 10 61 9 67 -1z m-64
-42 c0 -5 -5 -10 -11 -10 -5 0 -7 5 -4 10 3 6 8 10 11 10 2 0 4 -4 4 -10z m37
4 c-3 -3 -12 -4 -19 -1 -8 3 -5 6 6 6 11 1 17 -2 13 -5z"/>
<path d="M5032 6580 c0 -14 2 -19 5 -12 2 6 2 18 0 25 -3 6 -5 1 -5 -13z"/>
<path d="M4018 6563 c6 -2 18 -2 25 0 6 3 1 5 -13 5 -14 0 -19 -2 -12 -5z"/>
<path d="M4158 6563 c7 -3 16 -2 19 1 4 3 -2 6 -13 5 -11 0 -14 -3 -6 -6z"/>
<path d="M4228 6563 c7 -3 16 -2 19 1 4 3 -2 6 -13 5 -11 0 -14 -3 -6 -6z"/>
<path d="M3950 6542 c0 -4 9 -13 20 -19 16 -11 18 -10 14 1 -6 15 -34 30 -34
18z"/>
<path d="M4035 6542 c3 -3 47 -14 98 -25 54 -10 111 -29 137 -45 l45 -27 -35
-6 c-34 -6 -29 -9 28 -13 21 -1 252 -115 270 -133 8 -8 27 -20 43 -28 32 -17
39 -51 12 -58 -10 -2 -69 -5 -130 -6 -114 -2 -137 3 -177 40 -11 10 -22 17
-24 14 -3 -3 -3 -6 -1 -8 2 -2 24 -19 49 -39 25 -19 51 -33 59 -30 9 3 12 0 9
-9 -3 -9 7 -21 28 -31 29 -15 34 -15 34 -3 0 9 -11 20 -25 25 -32 12 -32 15 5
15 21 0 29 -5 27 -15 -1 -8 4 -15 11 -16 25 -3 27 -6 7 -14 -59 -24 125 -39
186 -15 18 7 68 -32 169 -129 61 -60 65 -66 64 -107 0 -24 -4 -62 -8 -84 -4
-22 -8 -42 -8 -45 0 -3 -4 -12 -9 -21 -4 -9 -10 -27 -13 -41 -2 -14 -13 -44
-24 -67 -12 -23 -23 -54 -27 -70 -3 -15 -25 -66 -49 -114 -24 -48 -40 -87 -35
-87 10 0 59 74 59 89 0 5 4 11 10 13 5 2 16 28 24 59 8 31 26 80 41 108 14 29
24 59 21 67 -3 8 -1 14 3 14 8 0 20 46 27 95 0 6 3 17 7 25 16 44 31 386 17
395 -6 4 -10 -17 -10 -53 0 -68 -9 -122 -20 -122 -4 0 -27 18 -51 41 -52 48
-63 58 -105 87 -29 20 -32 27 -36 85 -2 43 -9 70 -21 81 -9 10 -17 21 -17 24
0 9 -47 60 -80 87 l-25 20 20 -25 c11 -14 24 -28 28 -31 10 -7 18 -151 8 -147
-41 17 -100 67 -101 83 0 32 -19 89 -35 110 -13 18 -13 16 0 -17 17 -43 20
-102 4 -93 -5 4 -21 32 -34 62 -14 30 -38 72 -55 93 -21 27 -26 40 -18 43 9 4
10 6 1 6 -24 2 -24 -20 2 -51 14 -17 37 -53 51 -79 22 -44 23 -49 7 -49 -21 0
-137 65 -203 113 -25 18 -56 34 -70 35 -14 1 -58 8 -98 16 -40 8 -71 11 -67 8z
m653 -197 c-3 -3 -9 2 -12 12 -6 14 -5 15 5 6 7 -7 10 -15 7 -18z m16 -31 c3
-8 2 -12 -4 -9 -6 3 -10 1 -10 -6 0 -7 -3 -10 -6 -6 -7 6 2 37 10 37 2 0 7 -7
10 -16z m-161 -141 c-7 -2 -21 -2 -30 0 -10 3 -4 5 12 5 17 0 24 -2 18 -5z
m291 -74 c38 -36 66 -70 66 -82 0 -19 -1 -19 -27 -2 -16 9 -35 25 -44 36 -9
10 -19 16 -22 13 -3 -3 -8 4 -12 17 -5 15 -9 18 -15 9 -6 -9 -10 -7 -15 9 -3
12 -11 19 -16 16 -17 -11 -30 5 -19 26 17 30 34 23 104 -42z"/>
<path d="M5000 6541 c0 -6 5 -13 10 -16 6 -3 10 1 10 9 0 9 -4 16 -10 16 -5 0
-10 -4 -10 -9z"/>
<path d="M4478 6523 c7 -3 16 -2 19 1 4 3 -2 6 -13 5 -11 0 -14 -3 -6 -6z"/>
<path d="M5825 6509 c-4 -6 -5 -12 -2 -15 2 -3 7 2 10 11 7 17 1 20 -8 4z"/>
<path d="M4040 6482 c13 -9 50 -39 82 -65 32 -26 58 -44 58 -39 0 6 -10 16
-22 25 -13 8 -32 23 -43 34 -29 27 -82 63 -92 62 -4 0 3 -8 17 -17z"/>
<path d="M4550 6496 c0 -3 9 -10 20 -16 11 -6 20 -8 20 -6 0 3 -9 10 -20 16
-11 6 -20 8 -20 6z"/>
<path d="M5007 6443 c-4 -3 -7 -13 -7 -22 1 -13 3 -13 11 2 11 19 8 33 -4 20z"/>
<path d="M4205 6430 l-30 -8 33 -1 c17 0 32 4 32 9 0 6 -1 9 -2 9 -2 -1 -16
-5 -33 -9z"/>
<path d="M5783 6417 c-7 -14 -18 -24 -25 -24 -15 2 -219 -75 -214 -81 5 -5
136 42 178 64 24 12 32 13 38 4 9 -15 44 32 38 51 -2 6 -9 0 -15 -14z"/>
<path d="M4190 6356 c0 -2 8 -10 18 -17 15 -13 16 -12 3 4 -13 16 -21 21 -21
13z"/>
<path d="M5020 6336 c0 -8 4 -17 9 -20 5 -4 7 3 4 14 -6 23 -13 26 -13 6z"/>
<path d="M5714 6295 c-17 -19 -29 -37 -26 -40 6 -5 62 54 62 66 0 13 -2 12
-36 -26z"/>
<path d="M4230 6318 c0 -3 14 -17 30 -33 17 -16 30 -24 30 -18 0 7 -13 21 -30
33 -16 12 -30 20 -30 18z"/>
<path d="M4479 6310 c-9 -5 -45 -13 -80 -18 l-64 -10 53 -1 c47 -1 122 19 122
33 0 9 -13 7 -31 -4z"/>
<path d="M4998 6243 c-5 -23 1 -53 12 -53 9 0 8 55 -1 65 -4 3 -8 -2 -11 -12z"/>
<path d="M5020 6145 c0 -8 5 -15 10 -15 6 0 10 7 10 15 0 8 -4 15 -10 15 -5 0
-10 -7 -10 -15z"/>
<path d="M4995 6069 c-4 -6 -5 -12 -2 -15 2 -3 7 2 10 11 7 17 1 20 -8 4z"/>
<path d="M5025 6061 c-3 -5 -1 -12 5 -16 5 -3 10 1 10 9 0 18 -6 21 -15 7z"/>
<path d="M4995 5940 c-3 -5 -1 -10 4 -10 6 0 11 5 11 10 0 6 -2 10 -4 10 -3 0
-8 -4 -11 -10z"/>
<path d="M4994 5825 c-4 -8 -10 -12 -15 -9 -5 3 -9 0 -9 -5 0 -18 19 -12 30 9
6 11 8 20 5 20 -3 0 -8 -7 -11 -15z"/>
<path d="M4930 5659 c0 -5 5 -7 10 -4 6 3 10 8 10 11 0 2 -4 4 -10 4 -5 0 -10
-5 -10 -11z"/>
<path d="M3020 5568 c0 -5 7 -8 15 -6 21 4 138 -114 201 -204 30 -42 54 -79
54 -82 0 -3 -8 -3 -17 0 -10 4 -4 -3 12 -13 30 -20 104 -147 93 -159 -11 -10
-113 41 -174 87 -76 57 -89 66 -80 50 22 -35 175 -127 258 -154 9 -3 27 -23
38 -44 12 -21 29 -50 38 -65 9 -15 14 -30 10 -33 -4 -4 -31 1 -60 11 -76 25
-278 123 -278 134 0 6 -5 10 -11 10 -7 0 -8 -12 -4 -32 9 -40 25 -61 17 -22
l-5 27 29 -16 c114 -62 274 -127 313 -127 9 0 22 -12 28 -27 7 -16 32 -63 57
-105 31 -56 38 -75 25 -68 -10 6 -23 19 -29 30 -5 10 -20 21 -32 25 -58 15
-140 41 -218 67 -92 32 -89 31 -107 29 -16 -1 0 -41 35 -89 17 -24 27 -30 36
-23 9 8 13 7 13 -4 0 -8 -4 -12 -9 -9 -20 12 -4 -15 38 -69 28 -35 52 -56 60
-53 8 3 13 0 11 -6 -1 -7 3 -12 8 -13 6 0 21 -10 35 -23 13 -12 30 -20 36 -18
7 3 15 -2 18 -10 3 -9 10 -12 16 -9 5 3 10 2 10 -3 0 -15 33 -24 41 -11 5 8
11 5 20 -10 17 -25 31 -28 23 -3 -5 14 -3 14 10 -2 9 -11 16 -14 16 -8 0 7 10
12 23 12 18 0 19 -2 7 -10 -11 -7 -8 -9 14 -7 27 2 30 -2 38 -38 13 -62 50
-145 65 -145 7 0 13 -4 13 -10 0 -5 -5 -10 -12 -10 -9 0 -9 -3 0 -12 23 -23
12 -45 -43 -84 -91 -64 -134 -101 -172 -146 -19 -24 -51 -62 -71 -85 -23 -29
-43 -43 -59 -43 -14 0 -21 -4 -18 -10 3 -6 -7 -27 -24 -47 -17 -20 -28 -39
-25 -42 3 -3 17 8 30 24 13 17 28 30 33 30 5 0 21 14 36 30 15 17 56 60 91 97
35 37 64 71 64 75 0 5 16 19 36 32 19 13 45 35 57 48 12 12 28 23 35 23 7 0
10 5 7 10 -3 6 1 10 10 10 19 0 115 66 133 92 25 35 59 68 71 68 6 0 11 4 11
9 0 5 25 26 55 46 30 21 52 42 49 47 -3 4 -10 6 -15 3 -12 -8 -12 7 0 38 16
42 61 272 61 312 0 50 -7 42 -14 -15 -3 -25 -15 -79 -27 -120 -11 -41 -24 -93
-29 -115 -16 -75 -35 -113 -77 -159 -23 -25 -45 -46 -49 -46 -5 0 -20 -12 -36
-27 -15 -14 -30 -25 -32 -22 -2 2 -20 38 -40 79 -42 84 -54 146 -36 180 7 12
14 41 17 63 2 23 5 44 6 47 3 16 -16 129 -21 126 -4 -2 -8 15 -8 39 -1 24 -11
63 -23 87 -11 25 -21 50 -21 56 0 7 -4 12 -10 12 -12 0 -13 -27 -1 -34 11 -7
21 -56 11 -56 -5 0 -11 -24 -15 -52 -8 -58 -27 -137 -44 -182 -9 -23 -14 -26
-26 -16 -19 16 -19 43 -1 83 23 51 56 147 56 160 -1 7 -12 -17 -26 -53 -48
-122 -55 -135 -65 -119 -5 8 -9 27 -9 43 0 20 -4 27 -14 23 -9 -4 -25 15 -47
56 -19 34 -36 66 -38 72 -2 5 -19 36 -38 67 -19 32 -31 63 -28 69 11 18 17 99
7 99 -5 0 -9 -19 -10 -42 -1 -23 -4 -43 -6 -45 -2 -2 -30 45 -64 105 -68 125
-165 254 -245 328 -50 46 -87 64 -87 42z m724 -722 c-3 -16 -14 -48 -24 -70
l-18 -41 5 40 c4 22 9 42 12 45 3 3 7 21 7 40 2 60 5 66 15 41 5 -14 7 -38 3
-55z m-466 -1 c15 -7 54 -21 87 -30 125 -34 174 -57 212 -98 21 -23 31 -43 25
-45 -25 -8 -339 149 -358 179 -8 13 4 11 34 -6z m-28 -37 c0 -17 -15 -7 -27
18 -12 26 -12 26 7 9 11 -10 20 -22 20 -27z m506 -84 c-9 -13 -19 -24 -22 -24
-4 0 1 11 10 24 9 14 13 33 10 43 -5 17 -5 17 6 0 9 -14 8 -23 -4 -43z m-375
-58 c5 3 9 2 9 -3 0 -4 12 -9 28 -9 62 -3 92 -10 92 -21 0 -9 -8 -9 -32 -1
-18 6 -53 12 -78 13 -33 1 -46 6 -48 18 -2 9 -8 17 -13 17 -5 0 -9 7 -9 15 0
8 -4 15 -10 15 -5 0 -10 6 -10 13 1 6 14 -5 31 -25 17 -21 35 -35 40 -32z
m321 19 c-3 -18 -8 -23 -15 -16 -7 7 -7 15 1 24 7 8 8 18 4 22 -4 5 -2 5 4 2
6 -4 9 -18 6 -32z m65 3 c-3 -8 -6 -5 -6 6 -1 11 2 17 5 13 3 -3 4 -12 1 -19z
m-71 -95 c-2 -2 -7 5 -11 16 -3 12 -10 21 -15 21 -5 0 -6 8 -3 17 5 14 10 11
20 -16 8 -18 12 -35 9 -38z m-101 48 c3 -5 0 -13 -6 -17 -7 -4 -9 -3 -5 4 3 5
0 13 -6 15 -9 4 -10 6 -1 6 6 1 14 -3 18 -8z m-41 -10 c3 -5 -1 -12 -10 -15
-8 -3 -13 -2 -9 3 3 5 -1 12 -7 14 -8 4 -7 6 4 6 9 1 19 -3 22 -8z m86 -16 c7
-8 9 -15 6 -15 -4 0 -14 7 -22 15 -9 8 -11 15 -6 15 5 0 15 -7 22 -15z m-144
-15 c7 0 11 -6 8 -14 -5 -12 -8 -12 -24 2 -11 8 -16 20 -13 26 4 6 8 6 11 -2
2 -7 10 -12 18 -12z m54 -10 c0 -5 -7 -10 -15 -10 -8 0 -15 5 -15 10 0 6 7 10
15 10 8 0 15 -4 15 -10z m85 -31 c-5 -8 -55 -9 -55 -1 0 1 10 6 23 11 24 10
40 5 32 -10z m138 -126 c46 -106 54 -133 40 -133 -14 1 -77 104 -88 143 -2 4
-4 9 -5 12 -1 3 -4 10 -5 15 -1 6 -3 11 -5 13 -5 6 -8 42 -4 49 12 19 23 2 67
-99z"/>
<path d="M4925 5570 c3 -5 8 -10 11 -10 2 0 4 5 4 10 0 6 -5 10 -11 10 -5 0
-7 -4 -4 -10z"/>
<path d="M3170 5526 c0 -2 8 -10 18 -17 15 -13 16 -12 3 4 -13 16 -21 21 -21
13z"/>
<path d="M4876 5521 c-4 -7 -5 -15 -2 -18 9 -9 19 4 14 18 -4 11 -6 11 -12 0z"/>
<path d="M3042 5510 c0 -8 4 -26 8 -40 6 -20 8 -21 8 -5 0 11 -3 29 -8 40 -5
12 -8 14 -8 5z"/>
<path d="M4887 5450 c3 -11 7 -20 9 -20 2 0 4 9 4 20 0 11 -4 20 -9 20 -5 0
-7 -9 -4 -20z"/>
<path d="M3333 5410 c14 -11 29 -20 34 -20 10 1 -39 39 -51 40 -5 0 3 -9 17
-20z"/>
<path d="M3807 5417 c-3 -7 3 -13 14 -13 13 0 15 3 7 13 -6 7 -12 13 -13 13
-2 0 -5 -6 -8 -13z"/>
<path d="M3060 5400 c0 -5 5 -10 11 -10 5 0 7 5 4 10 -3 6 -8 10 -11 10 -2 0
-4 -4 -4 -10z"/>
<path d="M4850 5395 c0 -8 5 -15 10 -15 6 0 10 7 10 15 0 8 -4 15 -10 15 -5 0
-10 -7 -10 -15z"/>
<path d="M3850 5393 c0 -14 167 -109 176 -100 3 2 -11 12 -31 21 -20 10 -39
24 -42 32 -3 8 -13 14 -22 14 -9 0 -31 9 -48 20 -18 11 -33 17 -33 13z"/>
<path d="M4395 5375 c-22 -13 -33 -25 -24 -25 9 0 29 11 45 25 37 32 30 32
-21 0z"/>
<path d="M3822 5360 c5 -17 14 -33 19 -36 12 -7 11 -2 -7 34 -20 40 -26 41
-12 2z"/>
<path d="M3072 5360 c0 -14 2 -19 5 -12 2 6 2 18 0 25 -3 6 -5 1 -5 -13z"/>
<path d="M3401 5343 c10 -21 19 -64 21 -95 4 -85 18 -71 15 16 -1 41 -4 72 -6
70 -2 -2 -9 6 -15 18 -6 12 -16 23 -22 25 -7 2 -4 -12 7 -34z"/>
<path d="M4480 5360 c-6 -11 -8 -20 -6 -20 3 0 10 9 16 20 6 11 8 20 6 20 -3
0 -10 -9 -16 -20z"/>
<path d="M3120 5356 c15 -19 109 -76 125 -76 6 0 -6 10 -25 22 -19 12 -42 27
-51 33 -9 5 -27 16 -40 24 -22 13 -23 13 -9 -3z"/>
<path d="M4800 5338 c0 -15 5 -30 10 -33 13 -8 13 25 0 45 -8 12 -10 9 -10
-12z"/>
<path d="M4740 5326 c0 -9 -3 -16 -8 -16 -10 0 -36 -60 -28 -67 3 -3 11 7 18
23 6 16 18 36 26 46 9 11 10 18 3 23 -6 3 -11 -1 -11 -9z"/>
<path d="M3082 5310 c0 -14 2 -19 5 -12 2 6 2 18 0 25 -3 6 -5 1 -5 -13z"/>
<path d="M3450 5316 c0 -2 7 -9 15 -16 9 -7 15 -8 15 -2 0 5 -7 12 -15 16 -8
3 -15 4 -15 2z"/>
<path d="M3850 5304 c0 -13 63 -109 79 -121 9 -7 36 -22 61 -34 25 -11 54 -25
66 -31 14 -6 24 -27 34 -71 8 -34 13 -68 12 -75 -2 -6 2 -20 8 -30 8 -13 10 2
6 61 -6 78 5 96 19 35 7 -28 9 -30 12 -10 5 25 23 30 23 7 0 -13 4 -14 20 -5
15 8 19 7 15 -2 -2 -7 -7 -33 -10 -58 -3 -25 -7 -56 -9 -70 -2 -14 -6 -58 -11
-97 -4 -40 -12 -73 -17 -73 -6 0 -8 -7 -5 -15 4 -8 2 -17 -2 -19 -5 -3 -11
-25 -15 -48 -4 -23 -13 -49 -20 -58 -7 -8 -16 -28 -20 -45 -6 -30 -6 -30 11
-9 10 11 44 32 75 46 32 15 64 38 75 55 10 15 44 55 76 88 66 67 123 145 107
145 -5 0 -10 -4 -10 -10 0 -13 -239 -250 -252 -250 -6 0 -7 16 -4 38 3 20 8
64 11 97 10 107 58 350 72 366 8 9 40 26 71 38 31 11 62 24 67 29 28 21 54 61
59 92 l7 35 -20 -40 c-11 -22 -33 -53 -50 -69 -26 -25 -39 -29 -87 -31 -38 -1
-69 5 -93 17 -34 17 -37 17 -48 1 -7 -9 -13 -13 -13 -9 0 5 -12 1 -26 -9 -24
-16 -26 -16 -39 1 -12 17 -13 16 -24 -4 -11 -21 -12 -21 -49 -5 -59 27 -111
72 -133 114 -18 36 -29 48 -29 33z m333 -234 c4 0 5 5 2 10 -3 6 -2 10 4 10 5
0 12 -4 15 -9 9 -13 -25 -23 -39 -11 -6 5 -16 6 -20 2 -5 -4 -5 -1 0 6 5 10
10 11 18 3 6 -6 15 -11 20 -11z"/>
<path d="M4225 5300 c-3 -5 -1 -10 4 -10 6 0 11 5 11 10 0 6 -2 10 -4 10 -3 0
-8 -4 -11 -10z"/>
<path d="M3490 5286 c0 -2 8 -10 18 -17 15 -13 16 -12 3 4 -13 16 -21 21 -21
13z"/>
<path d="M4750 5226 c0 -22 3 -27 11 -19 8 8 8 16 0 30 -9 16 -10 14 -11 -11z"/>
<path d="M3096 5217 c3 -10 9 -15 12 -12 3 3 0 11 -7 18 -10 9 -11 8 -5 -6z"/>
<path d="M4663 5195 c-22 -35 -22 -35 -1 -35 14 0 18 5 14 15 -3 9 1 18 9 21
8 4 15 12 15 20 0 23 -14 15 -37 -21z"/>
<path d="M5386 5205 c4 -8 1 -15 -5 -15 -6 0 -11 -5 -11 -12 0 -6 9 -3 20 7
24 21 26 35 5 35 -9 0 -12 -6 -9 -15z"/>
<path d="M3580 5208 c0 -3 14 -21 32 -39 17 -19 26 -25 20 -14 -10 21 -52 62
-52 53z"/>
<path d="M4115 5200 c-3 -5 1 -10 9 -10 9 0 16 5 16 10 0 6 -4 10 -9 10 -6 0
-13 -4 -16 -10z"/>
<path d="M5318 5193 c7 -3 16 -2 19 1 4 3 -2 6 -13 5 -11 0 -14 -3 -6 -6z"/>
<path d="M5270 5180 c-8 -5 -10 -10 -5 -10 6 0 17 5 25 10 8 5 11 10 5 10 -5
0 -17 -5 -25 -10z"/>
<path d="M5198 5163 c7 -3 16 -2 19 1 4 3 -2 6 -13 5 -11 0 -14 -3 -6 -6z"/>
<path d="M3105 5140 c2 -27 10 -33 12 -10 1 11 -2 22 -6 24 -4 3 -7 -4 -6 -14z"/>
<path d="M4716 5151 c-4 -5 -2 -12 3 -15 5 -4 12 -2 15 3 4 5 2 12 -3 15 -5 4
-12 2 -15 -3z"/>
<path d="M5270 5137 c-25 -12 -74 -34 -108 -50 -34 -15 -62 -29 -62 -32 0 -3
17 2 38 11 20 9 60 25 87 36 28 10 61 28 75 38 31 24 26 24 -30 -3z"/>
<path d="M3590 5138 c-1 -7 -2 -80 -5 -163 -2 -82 0 -132 4 -110 9 48 14 285
6 285 -3 0 -5 -6 -5 -12z"/>
<path d="M5020 5119 c0 -5 5 -7 10 -4 6 3 10 8 10 11 0 2 -4 4 -10 4 -5 0 -10
-5 -10 -11z"/>
<path d="M5315 5111 c-11 -9 -38 -37 -60 -62 -27 -30 -20 -25 23 16 34 33 62
61 62 62 0 5 -5 2 -25 -16z"/>
<path d="M4677 5088 c-4 -12 -4 -24 -1 -27 6 -7 24 20 24 37 0 21 -17 13 -23
-10z"/>
<path d="M4615 5040 c-3 -5 -1 -10 4 -10 6 0 11 5 11 10 0 6 -2 10 -4 10 -3 0
-8 -4 -11 -10z"/>
<path d="M5188 5033 c7 -3 16 -2 19 1 4 3 -2 6 -13 5 -11 0 -14 -3 -6 -6z"/>
<path d="M4612 5000 c0 -14 2 -19 5 -12 2 6 2 18 0 25 -3 6 -5 1 -5 -13z"/>
<path d="M3135 4990 c-3 -5 -2 -18 4 -27 7 -14 9 -12 8 10 -2 30 -3 31 -12 17z"/>
<path d="M4560 4960 c0 -5 5 -10 10 -10 6 0 10 5 10 10 0 6 -4 10 -10 10 -5 0
-10 -4 -10 -10z"/>
<path d="M3151 4935 c0 -5 6 -19 14 -29 8 -11 15 -15 15 -10 0 6 -7 19 -15 30
-8 10 -14 15 -14 9z"/>
<path d="M4545 4930 c3 -5 8 -10 11 -10 2 0 4 5 4 10 0 6 -5 10 -11 10 -5 0
-7 -4 -4 -10z"/>
<path d="M4476 4851 c-4 -7 -5 -15 -2 -18 9 -9 19 4 14 18 -4 11 -6 11 -12 0z"/>
<path d="M4462 4790 c0 -14 2 -19 5 -12 2 6 2 18 0 25 -3 6 -5 1 -5 -13z"/>
<path d="M4391 4704 c0 -11 3 -14 6 -6 3 7 2 16 -1 19 -3 4 -6 -2 -5 -13z"/>
<path d="M4352 4670 c0 -14 2 -19 5 -12 2 6 2 18 0 25 -3 6 -5 1 -5 -13z"/>
<path d="M4386 4625 c-33 -30 -61 -55 -63 -55 -2 0 -25 -17 -51 -38 -44 -35
-64 -52 -115 -96 -12 -10 -38 -30 -57 -45 -19 -14 -43 -34 -53 -44 -10 -10
-23 -15 -29 -11 -6 4 -8 3 -5 -3 7 -11 -64 -73 -82 -73 -6 0 -11 -4 -11 -10 0
-19 -21 -10 -30 13 l-9 22 0 -22 c-1 -13 4 -23 9 -23 6 0 10 -4 10 -10 0 -5
-7 -10 -15 -10 -9 0 -26 -10 -39 -22 -13 -13 -40 -36 -62 -53 -38 -29 -58 -49
-120 -116 -17 -19 -75 -75 -130 -126 -100 -94 -134 -138 -134 -176 0 -20 0
-20 24 2 28 27 175 90 266 115 36 10 71 20 79 22 8 3 11 7 8 10 -8 9 -140 -25
-209 -53 -32 -12 -60 -23 -64 -23 -9 0 1 21 11 23 6 1 19 11 30 23 11 11 27
24 35 27 10 4 8 6 -7 6 -13 1 -23 4 -23 7 0 14 229 223 312 286 100 74 227
180 289 240 20 20 39 34 41 32 6 -6 258 216 258 227 0 13 0 13 -64 -46z"/>
<path d="M4292 4615 c0 -16 2 -22 5 -12 2 9 2 23 0 30 -3 6 -5 -1 -5 -18z"/>
<path d="M2637 4623 c-10 -9 -9 -47 2 -58 5 -6 21 -53 36 -105 37 -128 40
-144 27 -136 -6 3 0 -13 14 -37 19 -36 84 -199 84 -214 0 -8 -28 13 -85 62
-31 28 -61 52 -65 55 -4 3 -10 14 -13 25 -2 11 -5 2 -6 -20 0 -29 2 -36 9 -25
8 12 16 9 47 -20 21 -19 41 -40 45 -47 5 -6 23 -21 42 -32 27 -17 39 -37 66
-108 19 -49 38 -94 44 -102 26 -35 -85 41 -151 103 -18 16 -33 26 -33 20 0
-12 88 -88 133 -114 20 -12 43 -32 52 -46 l16 -25 -50 25 c-27 14 -79 48 -115
75 l-65 49 17 -36 c35 -78 71 -125 122 -163 45 -33 61 -38 83 -27 23 12 46 -1
23 -14 -11 -6 -14 -14 -8 -21 13 -17 39 -112 46 -172 3 -27 15 -78 25 -113 18
-59 18 -66 3 -100 -9 -20 -16 -39 -17 -42 -1 -3 -5 -12 -8 -20 -11 -27 -39
-134 -42 -160 -1 -14 -5 -32 -8 -40 -3 -8 -8 -41 -11 -72 -3 -31 -11 -69 -18
-83 l-14 -26 -73 39 c-66 35 -76 44 -91 84 -32 86 -112 178 -187 217 -37 19
-38 12 -2 -12 19 -12 39 -34 46 -48 13 -26 34 -141 27 -148 -10 -10 -74 46
-74 65 0 32 -71 164 -87 164 -11 0 -11 -4 3 -17 20 -20 79 -142 72 -148 -7 -7
-122 40 -192 78 -73 40 -99 51 -91 37 3 -6 11 -10 16 -10 5 0 28 -11 50 -26
69 -43 103 -60 144 -73 50 -16 166 -92 158 -104 -3 -5 -9 -3 -13 3 -7 11 -20
11 -69 0 -65 -14 -165 -8 -188 12 -9 7 -13 7 -13 0 0 -14 58 -62 75 -62 8 0
18 -6 22 -12 28 -44 146 -60 228 -32 43 14 46 14 87 -13 24 -15 67 -47 96 -71
45 -38 52 -41 52 -23 0 12 4 21 9 21 5 0 7 9 4 20 -3 11 -1 26 5 33 13 16 29
78 37 147 4 30 13 73 21 96 7 22 15 50 17 61 2 12 9 28 16 37 7 8 10 19 7 24
-6 11 39 133 53 141 10 7 42 62 87 151 18 36 42 75 53 87 12 12 21 27 21 32 0
6 21 36 46 66 50 63 51 91 1 34 -56 -64 -79 -93 -90 -119 -6 -14 -14 -27 -18
-30 -3 -3 -18 -26 -33 -52 -15 -27 -31 -48 -36 -48 -11 0 -49 104 -65 180 -4
19 -14 48 -23 65 -10 21 -11 30 -3 33 6 2 24 29 40 60 35 69 43 188 15 216
-10 10 -11 16 -3 16 8 0 9 3 0 13 -6 8 -8 17 -5 20 4 4 -1 18 -10 31 -9 14
-16 32 -16 41 0 8 -5 15 -10 15 -6 0 -4 -14 4 -35 12 -29 13 -35 2 -35 -8 0
-17 -12 -21 -27 -15 -62 -68 -184 -75 -176 -5 4 -20 41 -33 80 l-24 73 24 102
c13 56 23 111 21 122 -2 12 -14 -30 -27 -92 -13 -62 -27 -109 -31 -105 -4 4
-17 41 -30 80 -19 63 -21 79 -11 117 10 42 16 124 7 115 -5 -5 -15 -75 -16
-106 0 -13 -4 -23 -8 -23 -12 0 -42 67 -42 94 0 12 -11 56 -25 96 -14 40 -25
81 -25 89 0 9 -7 29 -15 45 -19 37 -19 50 1 42 14 -5 15 -4 4 9 -14 17 -14 17
-23 8z m348 -617 c-7 -36 -23 -94 -35 -130 -19 -52 -26 -63 -37 -55 -18 16
-17 28 11 85 12 27 31 75 41 107 10 31 21 57 25 57 4 0 1 -29 -5 -64z m-216
-163 c35 -31 42 -52 10 -29 -20 14 -55 56 -46 56 3 0 19 -12 36 -27z m192 -20
c-12 -20 -14 -14 -5 12 4 9 9 14 11 11 3 -2 0 -13 -6 -23z m-7 -38 c-4 -8 -8
-15 -10 -15 -2 0 -4 7 -4 15 0 8 4 15 10 15 5 0 7 -7 4 -15z m-50 -10 c7 -19
-5 -19 -30 0 -19 14 -19 14 2 15 12 0 24 -7 28 -15z m76 -147 c10 -34 27 -93
38 -130 11 -38 18 -68 16 -68 -1 0 -9 -3 -17 -6 -11 -4 -17 4 -22 28 -4 18
-10 38 -14 43 -4 6 -8 24 -10 41 -1 17 -10 57 -20 90 -19 59 -18 95 1 76 6 -6
18 -39 28 -74z m-370 -524 c0 -8 -4 -14 -10 -14 -5 0 -10 4 -10 9 0 5 -3 18
-7 28 -6 16 -5 16 10 4 9 -7 17 -20 17 -27z m16 -63 c1 -20 4 -47 8 -60 6 -17
5 -22 -5 -19 -8 3 -14 20 -15 39 0 19 -4 43 -7 55 -5 14 -3 21 6 21 8 0 13
-14 13 -36z m54 -86 c0 -5 -5 -3 -10 5 -5 8 -10 20 -10 25 0 6 5 3 10 -5 5 -8
10 -19 10 -25z m-265 -20 c22 0 57 3 78 7 43 8 51 -6 10 -17 -50 -14 -135 -8
-152 11 -15 16 -14 16 4 8 11 -4 38 -8 60 -9z m189 3 c-5 -8 -2 -9 10 -5 10 4
15 3 11 -4 -4 -5 -15 -7 -26 -4 -12 4 -19 2 -19 -6 0 -7 -3 -9 -6 -6 -8 8 14
37 28 37 5 0 6 -5 2 -12z m185 -59 c32 -20 51 -39 51 -50 0 -28 -27 -23 -71
12 -21 17 -39 28 -39 24 0 -3 -9 -1 -20 5 -11 6 -20 17 -20 25 0 25 45 17 99
-16z m-313 3 c-10 -2 -22 0 -28 6 -6 6 0 7 19 4 21 -5 23 -7 9 -10z m54 8 c0
-5 -2 -10 -4 -10 -3 0 -8 5 -11 10 -3 6 -1 10 4 10 6 0 11 -4 11 -10z"/>
<path d="M2686 4577 c3 -10 9 -15 12 -12 3 3 0 11 -7 18 -10 9 -11 8 -5 -6z"/>
<path d="M4237 4574 c-4 -4 -7 -14 -7 -23 0 -11 3 -12 11 -4 6 6 10 16 7 23
-2 6 -7 8 -11 4z"/>
<path d="M2625 4540 c-3 -5 -1 -10 4 -10 6 0 11 5 11 10 0 6 -2 10 -4 10 -3 0
-8 -4 -11 -10z"/>
<path d="M4186 4525 c-3 -8 -1 -15 4 -15 6 0 10 7 10 15 0 8 -2 15 -4 15 -2 0
-6 -7 -10 -15z"/>
<path d="M4120 4464 c0 -8 5 -12 10 -9 6 4 8 11 5 16 -9 14 -15 11 -15 -7z"/>
<path d="M4077 4463 c-4 -3 -7 -16 -6 -27 0 -19 1 -19 10 3 10 24 8 36 -4 24z"/>
<path d="M2623 4370 c0 -30 2 -43 4 -27 2 15 2 39 0 55 -2 15 -4 2 -4 -28z"/>
<path d="M4036 4411 c-4 -7 -5 -15 -2 -18 9 -9 19 4 14 18 -4 11 -6 11 -12 0z"/>
<path d="M2660 4373 c0 -6 8 -17 18 -24 16 -13 16 -13 2 6 -8 11 -16 22 -17
24 -2 2 -3 0 -3 -6z"/>
<path d="M3976 4354 c-8 -22 -7 -34 3 -34 5 0 9 11 9 25 0 29 -3 31 -12 9z"/>
<path d="M4465 4300 c3 -5 10 -10 16 -10 5 0 9 5 9 10 0 6 -7 10 -16 10 -8 0
-12 -4 -9 -10z"/>
<path d="M4518 4293 c7 -3 16 -2 19 1 4 3 -2 6 -13 5 -11 0 -14 -3 -6 -6z"/>
<path d="M4623 4283 c26 -7 22 -14 -36 -63 -50 -44 -104 -67 -197 -85 l-35 -7
30 33 c16 19 48 53 69 77 22 23 35 42 29 42 -7 0 -40 -33 -73 -72 -79 -93 -96
-108 -129 -108 -14 -1 -46 -12 -71 -25 -52 -28 -42 -32 21 -9 24 9 69 17 99
16 44 0 49 1 25 7 -24 6 -27 9 -13 15 24 11 181 54 257 71 35 8 67 18 70 21 7
8 -55 -1 -81 -11 -10 -4 -18 -3 -18 1 1 12 95 84 111 84 30 0 -6 15 -39 16
-20 1 -29 -1 -19 -3z"/>
<path d="M4260 4262 c-58 -22 -119 -62 -156 -102 -16 -18 -36 -40 -44 -49 -30
-33 -50 -71 -50 -96 0 -22 -3 -25 -24 -19 -13 3 -37 -1 -52 -9 -16 -8 -45 -18
-64 -21 -54 -8 -232 -56 -253 -68 -36 -19 -11 -16 73 9 47 13 124 33 172 43
48 10 92 21 98 25 6 4 10 -5 10 -22 0 -27 -4 -30 -62 -43 -39 -8 -55 -15 -41
-17 12 -3 31 1 42 6 25 14 77 14 102 1 13 -7 19 -7 19 0 0 5 5 10 10 10 6 0
10 -6 10 -14 0 -20 17 -29 58 -32 19 -1 37 -6 41 -11 9 -14 60 -22 67 -11 4 6
10 5 15 -3 6 -11 19 -11 71 0 72 15 75 16 60 34 -8 10 -6 13 9 13 10 0 19 -4
19 -8 0 -13 28 -9 43 7 8 8 30 17 48 20 19 3 40 12 48 20 12 12 11 13 -5 11
-10 -2 -26 0 -35 5 -9 4 -31 11 -50 14 -56 10 -48 18 11 10 102 -13 122 -13
138 6 9 10 18 16 21 15 3 -2 12 2 19 10 19 21 -2 17 -31 -6 -17 -13 -36 -19
-54 -16 -15 2 -62 10 -103 16 -41 7 -109 20 -150 30 -41 10 -92 21 -112 25
-21 3 -38 7 -38 9 0 9 36 76 56 103 13 17 24 36 24 41 0 14 43 49 80 65 48 21
16 20 -40 -1z m-89 -94 c-17 -23 -31 -49 -31 -58 0 -9 -7 -25 -16 -36 -15 -18
-15 -18 -9 11 3 17 15 42 26 58 13 18 16 27 7 27 -10 0 36 36 50 39 2 1 -10
-18 -27 -41z m-63 -50 c-7 -12 -19 -28 -25 -36 -17 -18 -16 -34 1 -30 8 2 14
-1 13 -7 -1 -5 -11 -10 -22 -11 -11 0 -27 -4 -35 -9 -8 -5 -4 6 9 26 12 18 30
46 39 61 20 33 38 38 20 6z m145 -108 c4 0 7 -5 7 -11 0 -8 -15 -9 -47 -4 -27
4 -60 7 -75 7 -16 -1 -28 3 -28 8 0 12 48 16 95 8 22 -4 43 -7 48 -8z m-147
-22 c4 -6 3 -8 -4 -4 -6 3 -13 2 -17 -4 -4 -6 -11 -7 -17 -4 -6 4 -5 10 3 15
19 12 27 11 35 -3z m184 2 c0 -5 -2 -10 -4 -10 -3 0 -8 5 -11 10 -3 6 -1 10 4
10 6 0 11 -4 11 -10z m-127 -30 c4 0 5 5 2 10 -3 6 -1 10 4 10 6 0 11 -5 11
-10 0 -6 10 -8 24 -4 13 3 27 1 30 -5 4 -7 1 -8 -8 -5 -9 3 -16 1 -16 -5 0 -8
-6 -9 -19 -2 -10 6 -20 8 -22 6 -3 -2 -20 -6 -39 -9 -33 -6 -34 -5 -12 7 12 7
21 16 19 19 -2 3 1 2 7 -3 5 -5 14 -9 19 -9z m159 -2 c11 0 15 -4 11 -14 -6
-17 -5 -17 -38 -4 -17 7 -24 7 -20 0 3 -6 2 -10 -4 -10 -5 0 -18 -3 -28 -6
-16 -5 -17 -5 -1 6 10 6 15 17 11 26 -4 12 0 14 23 8 16 -4 37 -7 46 -6z
m-286 -16 c1 -7 0 -8 -2 -3 -3 6 -12 7 -21 4 -11 -4 -14 -3 -9 6 9 14 29 10
32 -7z m54 4 c0 -3 -4 -8 -10 -11 -5 -3 -10 -1 -10 4 0 6 5 11 10 11 6 0 10
-2 10 -4z m89 -29 c12 -15 12 -17 -3 -11 -9 3 -16 13 -16 22 0 8 1 13 3 11 1
-2 9 -12 16 -22z m-36 -7 c3 -10 -2 -17 -12 -17 -17 0 -32 17 -26 27 8 13 34
6 38 -10z m-61 3 c-10 -4 -10 -8 0 -21 12 -15 11 -16 -4 -3 -19 14 -15 32 5
30 8 0 8 -2 -1 -6z m198 -7 c0 -3 -4 -8 -10 -11 -5 -3 -10 -1 -10 4 0 6 5 11
10 11 6 0 10 -2 10 -4z m60 -30 c0 -7 -7 -13 -15 -13 -10 0 -12 4 -5 12 5 7 6
16 2 20 -4 5 -1 5 6 1 6 -4 12 -13 12 -20z m-142 -6 c3 -9 -1 -11 -12 -7 -10
4 -22 7 -27 7 -6 0 -8 4 -5 9 8 13 39 7 44 -9z m49 -5 c0 -11 -4 -12 -14 -4
-7 6 -13 13 -13 15 0 2 6 4 13 4 8 0 14 -7 14 -15z"/>
<path d="M4763 4263 c15 -2 37 -2 50 0 12 2 0 4 -28 4 -27 0 -38 -2 -22 -4z"/>
<path d="M4960 4251 c0 -5 5 -13 10 -16 6 -3 10 -2 10 4 0 5 -4 13 -10 16 -5
3 -10 2 -10 -4z"/>
<path d="M2942 4218 c7 -15 15 -23 17 -17 2 6 -4 18 -13 27 -15 15 -15 15 -4
-10z"/>
<path d="M4843 4233 c4 -3 25 -6 48 -5 24 1 38 -2 34 -8 -3 -6 -12 -10 -18
-10 -16 -1 -57 -36 -57 -49 0 -6 -5 -11 -12 -11 -6 0 -9 -3 -5 -6 3 -4 19 4
36 17 57 46 75 59 84 59 4 0 5 5 2 10 -3 6 -31 10 -62 10 -31 0 -53 -3 -50 -7z"/>
<path d="M4750 4223 c-19 -3 -39 -9 -44 -14 -14 -13 42 -10 89 6 42 14 27 16
-45 8z"/>
<path d="M3750 4180 c0 -5 5 -10 10 -10 6 0 10 5 10 10 0 6 -4 10 -10 10 -5 0
-10 -4 -10 -10z"/>
<path d="M4795 4128 c-11 -6 -29 -20 -39 -30 -11 -10 -24 -18 -30 -18 -5 0 -7
-3 -3 -6 7 -7 97 45 97 57 0 11 0 11 -25 -3z"/>
<path d="M2642 4100 c0 -14 2 -19 5 -12 2 6 2 18 0 25 -3 6 -5 1 -5 -13z"/>
<path d="M3650 4074 c0 -8 5 -12 10 -9 6 3 10 10 10 16 0 5 -4 9 -10 9 -5 0
-10 -7 -10 -16z"/>
<path d="M4398 4083 c6 -2 18 -2 25 0 6 3 1 5 -13 5 -14 0 -19 -2 -12 -5z"/>
<path d="M4440 4080 c0 -6 7 -10 15 -10 8 0 15 2 15 4 0 2 -7 6 -15 10 -8 3
-15 1 -15 -4z"/>
<path d="M2652 4050 c0 -14 2 -19 5 -12 2 6 2 18 0 25 -3 6 -5 1 -5 -13z"/>
<path d="M4525 4060 c28 -5 66 -8 85 -8 32 0 31 1 -10 9 -25 4 -63 7 -85 7
-39 -1 -39 -1 10 -8z"/>
<path d="M4665 4038 l-20 -21 20 11 c11 6 27 16 35 22 13 9 13 10 0 9 -8 0
-24 -10 -35 -21z"/>
<path d="M3590 4024 c0 -8 5 -12 10 -9 6 4 8 11 5 16 -9 14 -15 11 -15 -7z"/>
<path d="M2660 4006 c0 -9 5 -16 10 -16 6 0 10 4 10 9 0 6 -4 13 -10 16 -5 3
-10 -1 -10 -9z"/>
<path d="M3440 3890 c0 -5 5 -10 11 -10 5 0 7 5 4 10 -3 6 -8 10 -11 10 -2 0
-4 -4 -4 -10z"/>
<path d="M3790 3880 c0 -12 8 -12 35 0 18 8 17 9 -7 9 -16 1 -28 -3 -28 -9z"/>
<path d="M3370 3830 c0 -5 5 -10 11 -10 5 0 7 5 4 10 -3 6 -8 10 -11 10 -2 0
-4 -4 -4 -10z"/>
<path d="M3310 3805 c-13 -14 -19 -25 -13 -25 6 0 18 11 27 25 9 14 15 25 13
25 -2 0 -14 -11 -27 -25z"/>
<path d="M3280 3760 c0 -5 5 -10 10 -10 6 0 10 5 10 10 0 6 -4 10 -10 10 -5 0
-10 -4 -10 -10z"/>
<path d="M3360 3705 c-7 -14 -17 -25 -22 -25 -4 0 -8 -7 -8 -15 0 -8 -4 -15
-8 -15 -5 0 -26 -25 -48 -56 -21 -30 -43 -61 -49 -67 -5 -7 -18 -28 -28 -47
-10 -19 -24 -46 -31 -60 -24 -43 -30 -73 -15 -67 8 2 13 10 11 17 -2 7 1 16 5
19 5 3 35 50 67 105 58 97 70 114 113 160 24 25 47 76 34 76 -4 0 -14 -11 -21
-25z"/>
<path d="M3240 3635 c0 -8 5 -15 10 -15 6 0 10 7 10 15 0 8 -4 15 -10 15 -5 0
-10 -7 -10 -15z"/>
<path d="M3103 3390 c-1 -11 2 -20 7 -20 10 0 20 26 13 34 -12 11 -19 6 -20
-14z"/>
<path d="M3114 3302 c-13 -9 -26 -42 -16 -42 4 0 12 11 19 25 6 14 10 25 10
25 -1 0 -7 -4 -13 -8z"/>
<path d="M3026 3271 c-4 -7 -5 -15 -2 -18 9 -9 19 4 14 18 -4 11 -6 11 -12 0z"/>
<path d="M2000 3246 c0 -7 21 -28 47 -47 25 -19 55 -40 65 -48 10 -7 18 -10
18 -5 0 5 -16 20 -36 34 -20 13 -49 36 -65 51 -16 15 -29 22 -29 15z"/>
<path d="M2038 3253 c6 -2 18 -2 25 0 6 3 1 5 -13 5 -14 0 -19 -2 -12 -5z"/>
<path d="M3071 3244 c0 -11 3 -14 6 -6 3 7 2 16 -1 19 -3 4 -6 -2 -5 -13z"/>
<path d="M2060 3236 c0 -6 58 -35 103 -51 57 -21 44 -10 -29 24 -68 32 -74 34
-74 27z"/>
<path d="M2198 3233 c18 -2 45 -2 60 0 15 2 0 4 -33 4 -33 0 -45 -2 -27 -4z"/>
<path d="M2328 3223 c7 -3 16 -2 19 1 4 3 -2 6 -13 5 -11 0 -14 -3 -6 -6z"/>
<path d="M3000 3185 c0 -8 7 -15 15 -15 8 0 15 4 15 9 0 5 -7 11 -15 15 -9 3
-15 0 -15 -9z"/>
<path d="M3051 3163 c-15 -29 -43 -134 -38 -140 3 -3 11 13 17 35 6 22 17 59
25 81 15 42 13 54 -4 24z"/>
<path d="M2213 3055 c39 -41 73 -75 76 -75 2 0 -7 13 -22 28 -15 15 -27 31
-27 34 0 3 25 9 55 13 30 3 55 10 55 15 0 4 -17 4 -37 -1 -62 -14 -79 -11
-119 26 -66 58 -56 39 19 -40z"/>
<path d="M2987 3080 c-3 -11 -2 -20 3 -20 12 0 21 28 11 35 -5 2 -11 -4 -14
-15z"/>
<path d="M3895 3050 l-30 -8 32 -1 c17 0 35 4 38 9 7 11 3 11 -40 0z"/>
<path d="M3977 3053 c-3 -4 20 -9 51 -11 31 -1 54 -1 51 1 -9 9 -98 17 -102
10z"/>
<path d="M4098 3043 c7 -3 16 -2 19 1 4 3 -2 6 -13 5 -11 0 -14 -3 -6 -6z"/>
<path d="M4200 3043 c-36 -5 -133 -36 -144 -45 -6 -4 -17 -8 -26 -8 -10 0 -36
-13 -58 -30 -23 -16 -45 -30 -48 -30 -4 0 -34 -14 -66 -30 -33 -17 -62 -29
-65 -27 -4 5 31 72 49 95 6 7 8 15 5 18 -5 6 -67 -97 -67 -113 0 -11 -19 -21
-122 -64 -53 -21 -68 -25 -68 -14 0 21 99 208 118 223 17 13 4 17 -13 4 -14
-10 -59 -91 -102 -183 -33 -70 -39 -77 -92 -102 -56 -27 -56 -27 -59 -6 -2 12
2 43 9 68 8 25 14 48 15 51 0 3 6 18 12 33 7 16 12 34 12 41 0 6 6 18 13 26
30 33 -55 -34 -100 -79 -44 -44 -103 -142 -103 -173 0 -15 -56 -67 -85 -78
-13 -5 -64 -36 -113 -69 -50 -34 -95 -61 -101 -61 -5 0 -13 17 -17 38 -11 53
-11 51 -12 120 -1 35 -6 62 -12 62 -17 0 -10 -310 6 -335 8 -11 14 -28 14 -39
0 -39 33 -176 43 -176 5 0 7 10 3 23 -3 12 -9 57 -12 100 l-7 77 39 35 c62 55
189 144 237 165 41 18 48 19 80 5 19 -8 37 -12 40 -8 3 3 20 1 36 -5 17 -6 31
-7 31 -2 0 4 12 5 27 1 41 -11 171 16 243 52 70 34 175 100 185 118 4 5 -23
-11 -61 -36 -58 -40 -70 -45 -93 -36 -14 5 -71 13 -126 17 -55 4 -107 8 -115
9 -8 1 -35 2 -59 3 l-43 2 58 30 57 31 91 -25 c50 -14 105 -27 121 -31 17 -3
39 -8 50 -12 13 -3 17 -2 10 5 -5 5 -41 17 -80 26 -127 28 -166 39 -162 49 2
6 52 31 113 57 60 26 143 63 184 82 41 19 80 33 86 31 6 -2 19 8 28 22 9 14
24 25 34 25 10 0 22 4 28 9 10 9 88 36 152 51 23 6 42 13 42 15 0 3 -3 4 -7 4
-5 -1 -19 -3 -33 -6z m-736 -147 c-3 -9 -10 -13 -15 -10 -5 3 -3 11 4 19 15
16 19 13 11 -9z m-39 -46 c-10 -11 -23 -20 -29 -20 -6 1 0 10 13 20 30 26 39
26 16 0z m-23 -52 c-3 -13 -8 -16 -17 -8 -6 5 -15 7 -19 3 -4 -4 -4 0 -1 9 9
23 43 19 37 -4z m22 -47 c-4 -23 -9 -40 -11 -37 -3 3 -2 23 2 46 4 23 9 39 11
37 3 -2 2 -23 -2 -46z m-80 -12 c-10 -12 -18 -24 -17 -28 1 -3 -1 -8 -3 -10
-2 -2 -4 2 -4 9 0 13 28 50 38 50 3 0 -3 -9 -14 -21z m46 -22 c0 -14 -6 -24
-14 -24 -11 0 -12 5 -3 24 5 13 12 23 14 23 1 0 3 -10 3 -23z m-63 -47 c-1
-12 -5 -16 -10 -11 -5 5 -6 14 -3 20 11 16 15 13 13 -9z m133 -25 c5 3 11 1
11 -4 1 -6 2 -16 3 -23 0 -6 6 -13 13 -15 8 -3 10 5 7 24 -3 15 -2 25 1 21 4
-3 8 -14 9 -25 2 -12 12 -18 32 -19 51 -2 50 -6 -1 -14 -37 -6 -53 -4 -61 6
-6 8 -15 10 -19 6 -5 -4 -5 -2 -2 4 4 7 1 17 -7 23 -11 9 -15 9 -19 -1 -2 -8
-8 -9 -13 -4 -5 5 -4 11 4 13 6 3 9 10 5 16 -4 7 0 6 10 -1 9 -8 21 -11 27 -7z
m282 -17 c-10 -10 -133 -41 -139 -34 -5 5 5 8 76 22 19 4 22 7 11 14 -10 6 -2
8 22 7 20 -1 34 -5 30 -9z m-437 -8 c-3 -5 0 -10 7 -10 7 0 2 -9 -11 -19 -14
-10 -31 -17 -38 -14 -7 3 -16 -2 -19 -11 -3 -9 -14 -16 -23 -16 -10 0 -28 -11
-41 -25 -13 -14 -28 -25 -34 -25 -10 0 -53 -34 -112 -89 -20 -19 -21 -19 -32
-1 -10 16 -5 25 34 64 25 25 49 46 55 46 9 0 69 39 79 51 24 31 153 77 135 49z
m100 -31 c-24 -4 -44 -3 -50 3 -7 8 -5 9 8 5 9 -4 17 -3 17 2 0 4 15 5 33 2
l32 -5 -40 -7z"/>
<path d="M4240 3020 c-8 -5 -12 -12 -9 -15 4 -3 12 1 19 10 14 17 11 19 -10 5z"/>
<path d="M3850 3009 c0 -5 5 -7 10 -4 6 3 10 8 10 11 0 2 -4 4 -10 4 -5 0 -10
-5 -10 -11z"/>
<path d="M2946 2981 c-4 -7 -5 -15 -2 -18 9 -9 19 4 14 18 -4 11 -6 11 -12 0z"/>
<path d="M4150 2960 c0 -5 5 -10 10 -10 6 0 10 5 10 10 0 6 -4 10 -10 10 -5 0
-10 -4 -10 -10z"/>
<path d="M4050 2944 c-53 -13 -54 -14 -10 -9 63 7 78 10 86 18 10 9 -10 7 -76
-9z"/>
<path d="M4080 2885 c-19 -19 -29 -35 -24 -35 6 0 24 16 41 35 17 19 28 35 24
35 -4 0 -22 -16 -41 -35z"/>
<path d="M2982 2880 c0 -19 2 -27 5 -17 2 9 2 25 0 35 -3 9 -5 1 -5 -18z"/>
<path d="M2940 2855 c0 -8 5 -15 10 -15 6 0 10 7 10 15 0 8 -4 15 -10 15 -5 0
-10 -7 -10 -15z"/>
<path d="M3828 2803 c7 -3 16 -2 19 1 4 3 -2 6 -13 5 -11 0 -14 -3 -6 -6z"/>
<path d="M3880 2799 c0 -5 9 -9 20 -9 11 0 20 2 20 4 0 2 -9 6 -20 9 -11 3
-20 1 -20 -4z"/>
<path d="M2940 2777 c0 -14 6 -24 14 -24 8 0 16 11 19 24 3 17 0 23 -14 23
-13 0 -19 -7 -19 -23z"/>
<path d="M3948 2793 c7 -3 16 -2 19 1 4 3 -2 6 -13 5 -11 0 -14 -3 -6 -6z"/>
<path d="M3949 2753 c-13 -16 -12 -17 4 -4 9 7 17 15 17 17 0 8 -8 3 -21 -13z"/>
<path d="M2853 2604 c1 -116 7 -154 20 -120 3 8 4 29 2 48 -7 54 -7 90 1 146
6 43 4 52 -9 52 -13 0 -15 -18 -14 -126z"/>
<path d="M2922 2670 c0 -14 2 -19 5 -12 2 6 2 18 0 25 -3 6 -5 1 -5 -13z"/>
<path d="M2916 2584 c-8 -22 -8 -44 2 -44 4 0 8 14 9 30 2 33 -2 38 -11 14z"/>
<path d="M2920 2490 c0 -11 2 -20 4 -20 2 0 6 9 9 20 3 11 1 20 -4 20 -5 0 -9
-9 -9 -20z"/>
<path d="M2860 2427 c0 -23 5 -37 13 -37 8 0 7 -3 -3 -10 -14 -9 -11 -48 17
-227 7 -43 -18 -45 -48 -3 -12 16 -27 26 -32 23 -6 -3 -8 -2 -4 3 11 19 -62
80 -86 70 -9 -3 -9 -5 1 -5 10 -1 19 -61 8 -61 -44 0 -151 85 -126 100 7 5 0
12 -21 19 -17 6 -33 11 -34 11 -2 0 15 -19 36 -42 37 -40 44 -62 23 -64 -44
-5 -96 -19 -101 -27 -4 -7 1 -8 13 -3 10 4 51 10 89 13 53 4 75 1 90 -10 19
-15 18 -16 -30 -37 -27 -12 -63 -28 -79 -36 -26 -13 -32 -12 -62 7 -19 11 -34
18 -34 16 0 -8 114 -84 138 -91 41 -13 97 -8 142 13 49 23 72 22 128 -6 40
-19 55 -45 98 -158 43 -113 69 -167 105 -215 19 -25 42 -57 52 -73 20 -31 138
-147 149 -147 5 0 8 -4 8 -9 0 -10 22 -38 88 -111 23 -26 42 -50 42 -53 0 -3
-16 -5 -35 -4 -19 1 -35 6 -35 10 0 4 -15 32 -34 61 -41 64 -115 107 -180 105
-41 -1 -41 -1 12 -11 29 -5 50 -14 47 -18 -3 -5 10 -41 30 -80 l35 -70 -39 0
c-34 0 -40 4 -52 33 -7 17 -37 56 -66 86 -29 30 -53 56 -53 57 0 1 10 4 23 6
12 2 -4 5 -36 6 -33 1 -55 -3 -52 -8 3 -5 13 -6 21 -3 18 7 90 -60 135 -124
l30 -43 -29 0 c-15 0 -49 14 -75 30 -70 44 -144 80 -164 80 -10 -1 -2 -7 18
-14 19 -7 64 -30 100 -52 l64 -39 -64 -7 c-90 -10 -100 -19 -13 -13 82 6 86
-3 15 -30 -26 -9 -66 -25 -88 -36 -29 -13 -56 -17 -95 -14 -37 3 -47 2 -30 -4
40 -13 170 -22 140 -9 -23 9 -21 12 45 37 39 15 82 35 97 45 21 13 37 16 68
11 22 -4 40 -11 40 -16 0 -5 3 -8 8 -8 17 3 32 -2 32 -10 0 -5 -12 -8 -26 -5
-16 3 -23 1 -19 -6 3 -5 -1 -13 -9 -16 -9 -3 -14 -9 -12 -13 2 -3 -2 -12 -10
-18 -7 -8 -15 -9 -19 -3 -3 5 -12 7 -20 4 -8 -4 -13 -9 -11 -13 3 -4 -10 -8
-27 -8 -18 -1 -25 1 -17 4 8 4 21 13 29 20 8 8 22 12 32 10 17 -5 23 4 20 25
0 4 8 10 19 13 20 6 28 25 11 25 -4 0 -25 -11 -44 -25 -83 -56 -128 -76 -143
-64 -9 7 -14 8 -14 1 0 -5 14 -15 30 -21 22 -7 30 -7 30 1 0 6 9 3 20 -7 12
-11 29 -16 45 -13 14 3 28 1 31 -3 7 -13 54 -11 54 2 0 5 4 8 10 4 14 -9 71
19 114 57 l40 35 65 -23 c36 -13 73 -24 82 -24 14 0 53 -39 226 -224 15 -16
40 -46 54 -65 15 -20 50 -65 78 -101 28 -36 69 -91 91 -122 23 -32 48 -58 56
-58 8 0 13 -4 9 -10 -3 -5 12 -28 35 -51 22 -23 40 -43 40 -46 0 -3 16 -24 35
-47 35 -43 45 -76 24 -76 -6 0 -48 11 -93 24 -115 34 -206 54 -206 45 0 -10
28 -20 85 -29 72 -12 229 -61 237 -74 18 -27 3 -29 -87 -10 -45 10 -19 -10 39
-30 27 -9 59 -16 71 -16 13 0 27 -10 33 -22 7 -13 16 -30 22 -38 21 -32 68
-147 74 -182 4 -24 12 -38 21 -38 18 0 18 -2 0 85 -8 39 -21 75 -28 80 -7 6
-28 41 -47 80 -19 38 -41 75 -47 83 -7 7 -13 19 -13 27 0 7 -7 16 -16 19 -9 3
-14 13 -10 21 3 8 0 20 -7 27 -7 7 -24 31 -39 52 -21 30 -25 43 -16 53 6 7 8
17 4 21 -4 4 -14 -1 -21 -11 -12 -17 -18 -13 -67 50 -30 37 -67 86 -84 108
-28 39 -35 48 -61 79 -7 8 -13 18 -13 21 0 11 -82 115 -91 115 -5 0 -9 4 -9
10 0 19 -42 59 -56 53 -10 -4 -12 0 -8 11 4 10 1 16 -8 16 -8 0 -23 16 -34 35
-10 19 -23 35 -29 35 -21 1 -90 101 -88 128 l2 27 -8 -25 c-7 -24 -8 -24 -29
16 -11 22 -37 55 -56 72 -35 31 -46 52 -26 52 6 0 10 9 10 21 0 23 -24 21 -26
-2 0 -8 -2 -18 -2 -23 -2 -11 -62 43 -62 56 0 4 -44 52 -97 106 -95 95 -123
127 -179 202 -26 36 -48 80 -46 92 2 11 -29 81 -48 108 -10 14 -18 28 -18 33
-4 37 -17 78 -28 88 -8 6 -14 21 -14 32 0 17 -28 120 -48 177 -3 8 -6 24 -7
35 -1 11 -3 22 -5 25 -1 3 -4 28 -5 55 -4 65 -11 104 -19 112 -3 3 -6 -10 -6
-30z m-95 -257 c3 -6 -1 -7 -9 -4 -18 7 -21 14 -7 14 6 0 13 -4 16 -10z m-22
-33 c-3 -5 -24 -18 -47 -28 -22 -11 -48 -25 -57 -31 -10 -7 -27 -8 -45 -3 -19
5 -24 9 -14 13 8 3 42 18 75 33 58 27 99 34 88 16z m165 -48 c24 -15 37 -39
22 -39 -22 0 -100 43 -100 55 0 16 41 7 78 -16z m340 -688 c3 -8 -1 -12 -9 -9
-7 2 -15 10 -17 17 -3 8 1 12 9 9 7 -2 15 -10 17 -17z m66 -48 c7 -17 -24 -2
-44 22 -12 15 -11 15 13 4 14 -6 28 -18 31 -26z m11 -63 c3 -5 1 -10 -4 -10
-6 0 -11 5 -11 10 0 6 2 10 4 10 3 0 8 -4 11 -10z m147 -56 c26 -14 43 -32 36
-39 -2 -2 -31 5 -66 17 -39 12 -62 25 -62 35 0 17 46 10 92 -13z m-155 -39
c-31 -28 -52 -32 -63 -12 -4 6 -4 9 0 5 5 -4 17 2 29 13 11 10 30 19 41 19 19
-1 19 -3 -7 -25z m-78 -43 c-10 -16 -39 -27 -39 -15 0 10 26 32 38 33 9 0 10
-4 1 -18z"/>
<path d="M3453 2408 c-18 -22 -52 -98 -44 -98 4 0 15 19 26 43 10 23 23 45 29
49 6 4 8 10 5 13 -4 3 -11 0 -16 -7z"/>
<path d="M2907 2396 c-4 -10 -5 -21 -2 -24 9 -9 17 6 13 25 -3 17 -4 17 -11
-1z"/>
<path d="M3454 2314 c-16 -68 -19 -74 -31 -58 -7 10 -13 13 -13 7 0 -7 5 -15
10 -18 13 -8 13 -57 -1 -92 -6 -15 -13 -41 -15 -58 -11 -72 -26 -135 -32 -135
-11 0 -62 60 -62 74 0 6 -5 18 -10 26 -7 11 -9 -1 -8 -39 0 -35 9 -68 25 -99
l25 -46 -18 -113 c-9 -62 -19 -113 -23 -113 -14 0 -70 76 -97 131 -16 32 -33
59 -37 59 -5 0 -5 5 -2 10 3 6 2 10 -3 10 -5 0 -9 7 -9 15 0 8 -9 34 -20 57
-66 137 -83 175 -83 186 0 6 -5 12 -11 12 -5 0 -7 5 -4 10 3 6 1 10 -5 10 -8
0 -9 -7 -5 -17 4 -10 12 -34 17 -53 6 -19 14 -39 18 -45 4 -5 19 -39 33 -75
54 -136 125 -261 179 -312 15 -14 28 -30 28 -35 0 -20 70 -83 92 -83 2 0 4 75
4 166 l2 166 36 30 c40 33 62 74 70 133 5 40 5 40 -7 10 -17 -43 -29 -58 -54
-72 -32 -18 -53 -16 -52 5 1 31 13 50 67 105 28 30 52 59 52 63 0 5 -4 5 -8
-1 -4 -5 -27 -28 -51 -50 l-43 -40 6 40 c4 22 20 66 36 98 30 57 34 82 6 30
-14 -25 -15 -26 -16 -7 0 12 7 41 16 65 15 44 29 119 21 119 -3 0 -13 -34 -23
-76z m-129 -344 c3 -5 1 -10 -4 -10 -6 0 -11 5 -11 10 0 6 2 10 4 10 3 0 8 -4
11 -10z m25 -40 c8 -5 11 -10 5 -10 -5 0 -17 5 -25 10 -8 5 -10 10 -5 10 6 0
17 -5 25 -10z m36 -108 c0 -36 -12 -161 -21 -212 -7 -33 -7 -34 -22 -15 -16
22 -12 121 8 216 12 55 34 62 35 11z"/>
<path d="M3501 2364 c0 -11 3 -14 6 -6 3 7 2 16 -1 19 -3 4 -6 -2 -5 -13z"/>
<path d="M2940 2328 c0 -7 5 -20 10 -28 8 -12 10 -11 10 7 0 12 -4 25 -10 28
-5 3 -10 0 -10 -7z"/>
<path d="M2281 2277 c60 -57 152 -119 115 -78 -11 12 -24 21 -30 21 -13 0
-106 89 -106 101 0 5 -8 9 -17 9 -13 -1 0 -17 38 -53z"/>
<path d="M2354 2289 c33 -11 61 -17 63 -15 5 5 -100 37 -114 35 -4 -1 19 -10
51 -20z"/>
<path d="M3385 2280 c-3 -5 -1 -10 4 -10 6 0 11 5 11 10 0 6 -2 10 -4 10 -3 0
-8 -4 -11 -10z"/>
<path d="M2630 2276 c0 -2 7 -7 16 -10 8 -3 12 -2 9 4 -6 10 -25 14 -25 6z"/>
<path d="M2671 2254 c0 -11 3 -14 6 -6 3 7 2 16 -1 19 -3 4 -6 -2 -5 -13z"/>
<path d="M3511 2254 c0 -11 3 -14 6 -6 3 7 2 16 -1 19 -3 4 -6 -2 -5 -13z"/>
<path d="M2944 2249 c-3 -6 -1 -16 5 -22 8 -8 11 -5 11 11 0 24 -5 28 -16 11z"/>
<path d="M2508 2243 c7 -3 16 -2 19 1 4 3 -2 6 -13 5 -11 0 -14 -3 -6 -6z"/>
<path d="M3341 2205 c0 -5 6 -19 14 -29 8 -11 15 -15 15 -10 0 6 -7 19 -15 30
-8 10 -14 15 -14 9z"/>
<path d="M2420 2175 c0 -2 14 -14 31 -26 30 -21 30 -21 18 -1 -11 17 -49 38
-49 27z"/>
<path d="M2950 2166 c0 -9 5 -16 10 -16 6 0 10 4 10 9 0 6 -4 13 -10 16 -5 3
-10 -1 -10 -9z"/>
<path d="M3511 2164 c0 -11 3 -14 6 -6 3 7 2 16 -1 19 -3 4 -6 -2 -5 -13z"/>
<path d="M3316 2155 c-9 -26 -7 -32 5 -12 6 10 9 21 6 23 -2 3 -7 -2 -11 -11z"/>
<path d="M2990 2056 c0 -9 5 -16 10 -16 6 0 10 4 10 9 0 6 -4 13 -10 16 -5 3
-10 -1 -10 -9z"/>
<path d="M4205 1983 c-36 -33 -44 -44 -20 -25 38 28 93 83 84 82 -2 -1 -31
-26 -64 -57z"/>
<path d="M3025 1990 c-3 -5 5 -22 19 -37 15 -15 26 -33 26 -40 0 -7 5 -13 10
-13 15 0 12 9 -10 37 -11 14 -20 32 -20 39 0 17 -17 27 -25 14z"/>
<path d="M4223 1923 c-20 -32 -56 -82 -80 -110 -26 -31 -41 -58 -37 -64 4 -7
3 -9 -3 -6 -10 6 -11 5 -78 -98 -25 -38 -45 -75 -45 -82 0 -7 -4 -13 -10 -13
-5 0 -10 20 -10 45 0 25 -3 45 -7 45 -5 0 -6 -25 -5 -55 2 -31 1 -63 -2 -72
-6 -14 -8 -14 -24 2 -19 21 -26 60 -27 153 0 34 -3 62 -7 62 -5 0 -8 -7 -8
-15 0 -8 -4 -15 -8 -15 -7 0 -46 -58 -47 -70 0 -3 -7 -16 -14 -30 -9 -15 -14
-58 -15 -110 -1 -72 2 -90 21 -116 21 -29 21 -33 8 -72 -8 -23 -20 -74 -26
-114 -7 -40 -15 -76 -18 -81 -4 -4 -68 56 -141 134 -74 77 -136 136 -138 130
-2 -5 17 -31 42 -57 25 -26 46 -51 46 -55 0 -5 6 -9 14 -9 8 0 33 -25 57 -56
24 -30 57 -67 73 -82 59 -54 136 -135 136 -144 0 -4 18 -27 40 -50 48 -52 51
-45 8 17 -68 97 -71 122 -37 284 l22 101 51 29 c28 16 60 41 71 56 20 26 38
49 74 91 10 11 24 34 33 50 8 16 25 47 37 69 l22 40 -33 -37 c-23 -26 -54 -45
-102 -63 -38 -14 -71 -23 -74 -20 -3 3 16 36 41 75 26 38 47 74 47 78 0 15 44
50 93 72 26 13 46 24 44 26 -2 2 -22 -5 -45 -16 -22 -11 -43 -20 -46 -20 -3 0
24 38 59 85 63 83 101 145 90 145 -3 0 -22 -26 -42 -57z m-347 -267 c0 -15 -5
-21 -10 -16 -5 5 -6 16 -3 24 9 23 15 19 13 -8z m-36 -63 c-11 -17 -11 -17 -6
0 3 10 6 24 7 30 0 9 2 9 5 0 3 -7 0 -20 -6 -30z m40 -3 c0 -16 -4 -30 -8 -30
-5 0 -8 10 -6 23 1 12 3 25 3 30 3 21 11 3 11 -23z m-51 -81 c-2 -27 -6 -52
-10 -54 -3 -3 -5 14 -4 38 3 61 4 67 10 67 4 0 5 -23 4 -51z m285 39 c-16 -28
-28 -39 -33 -30 -8 13 -51 -4 -51 -20 0 -9 3 -9 12 0 7 7 17 12 23 12 5 0 1
-7 -9 -15 -10 -8 -23 -12 -29 -8 -6 3 -15 -1 -21 -9 -12 -16 -66 -30 -66 -18
0 4 8 17 18 28 19 23 122 66 122 51 0 -5 5 -9 10 -9 6 0 10 7 10 15 0 8 5 15
11 15 5 0 7 -6 3 -12z m-234 -28 c0 -5 -5 -10 -11 -10 -5 0 -7 5 -4 10 3 6 8
10 11 10 2 0 4 -4 4 -10z m40 -26 c0 -8 -4 -14 -10 -14 -5 0 -10 9 -10 21 0
11 5 17 10 14 6 -3 10 -13 10 -21z m-24 -60 c1 -9 0 -13 -4 -10 -3 4 -7 14 -8
22 -1 9 0 13 4 10 3 -4 7 -14 8 -22z m-69 -16 c-3 -8 -6 -5 -6 6 -1 11 2 17 5
13 3 -3 4 -12 1 -19z m188 2 c-3 -5 -12 -10 -18 -10 -7 0 -6 4 3 10 19 12 23
12 15 0z m-148 -36 c-3 -3 -12 -4 -19 -1 -8 3 -5 6 6 6 11 1 17 -2 13 -5z m13
-76 c0 -13 -11 -62 -24 -110 -13 -48 -20 -89 -15 -92 5 -2 4 -3 -3 -2 -19 4
-22 43 -8 121 12 68 27 105 42 105 5 0 8 -10 8 -22z m-45 -227 c3 -5 1 -12 -5
-16 -5 -3 -10 1 -10 9 0 18 6 21 15 7z"/>
<path d="M4276 1953 c-6 -14 -5 -15 5 -6 7 7 10 15 7 18 -3 3 -9 -2 -12 -12z"/>
<path d="M4265 1920 c-3 -5 -1 -10 4 -10 6 0 11 5 11 10 0 6 -2 10 -4 10 -3 0
-8 -4 -11 -10z"/>
<path d="M4101 1894 c-12 -15 -21 -40 -20 -58 1 -30 1 -29 10 8 5 22 17 48 26
58 9 10 13 18 10 18 -3 0 -15 -12 -26 -26z"/>
<path d="M4237 1814 c-4 -4 -7 -14 -7 -23 0 -11 3 -12 11 -4 6 6 10 16 7 23
-2 6 -7 8 -11 4z"/>
<path d="M3100 1794 c0 -8 5 -12 10 -9 6 3 10 10 10 16 0 5 -4 9 -10 9 -5 0
-10 -7 -10 -16z"/>
<path d="M4071 1770 c0 -29 1 -32 10 -17 7 11 7 23 0 35 -9 14 -10 11 -10 -18z"/>
<path d="M3925 1779 c-4 -6 -5 -12 -2 -15 2 -3 7 2 10 11 7 17 1 20 -8 4z"/>
<path d="M3951 1748 c0 -14 -4 -35 -7 -45 -5 -17 -5 -17 6 0 6 10 9 30 7 45
l-4 27 -2 -27z"/>
<path d="M4208 1716 c-19 -14 -23 -26 -10 -26 4 0 13 9 20 20 14 23 13 24 -10
6z"/>
<path d="M3940 1666 c0 -9 5 -16 10 -16 6 0 10 4 10 9 0 6 -4 13 -10 16 -5 3
-10 -1 -10 -9z"/>
<path d="M3190 1659 c0 -5 5 -7 10 -4 6 3 10 8 10 11 0 2 -4 4 -10 4 -5 0 -10
-5 -10 -11z"/>
<path d="M3220 1605 c0 -8 4 -15 10 -15 5 0 7 7 4 15 -4 8 -8 15 -10 15 -2 0
-4 -7 -4 -15z"/>
<path d="M3390 1513 c5 -2 10 -9 10 -15 0 -6 11 -23 25 -40 14 -16 25 -25 25
-20 0 15 -44 75 -58 78 -7 1 -8 0 -2 -3z"/>
<path d="M3362 1455 c0 -16 2 -22 5 -12 2 9 2 23 0 30 -3 6 -5 -1 -5 -18z"/>
<path d="M2948 1443 c6 -2 18 -2 25 0 6 3 1 5 -13 5 -14 0 -19 -2 -12 -5z"/>
<path d="M3477 1409 c7 -7 15 -10 18 -7 3 3 -2 9 -12 12 -14 6 -15 5 -6 -5z"/>
<path d="M5209 1411 c10 -7 8 -12 -10 -25 -13 -9 -18 -16 -11 -16 8 0 10 -5 6
-12 -4 -7 -3 -8 4 -4 7 4 12 14 12 22 0 8 5 14 10 14 6 0 10 7 10 15 0 8 -8
15 -17 15 -14 0 -15 -2 -4 -9z"/>
<path d="M2848 1403 c7 -3 16 -2 19 1 4 3 -2 6 -13 5 -11 0 -14 -3 -6 -6z"/>
<path d="M2808 1383 c7 -3 16 -2 19 1 4 3 -2 6 -13 5 -11 0 -14 -3 -6 -6z"/>
<path d="M5085 1380 c-13 -5 -14 -9 -5 -9 8 0 24 4 35 9 13 5 14 9 5 9 -8 0
-24 -4 -35 -9z"/>
<path d="M5098 1311 c-85 -72 -128 -98 -128 -77 0 8 4 17 9 20 10 6 33 66 26
66 -8 0 -46 -87 -43 -97 2 -6 -33 -38 -77 -71 l-80 -61 -6 37 c-6 36 -10 27
-13 -31 -1 -16 -9 -33 -17 -37 -59 -34 -223 -177 -209 -183 6 -3 5 -4 -2 -3
-7 2 -21 -1 -31 -6 -18 -9 -18 -5 -12 59 12 122 23 182 44 228 11 25 25 45 30
45 6 0 11 6 11 13 0 6 -12 -1 -27 -18 -14 -16 -29 -29 -32 -29 -3 1 -5 -2 -3
-8 1 -5 -3 -6 -9 -3 -17 11 -78 -55 -105 -115 -14 -30 -30 -64 -36 -75 -6 -11
-13 -63 -14 -115 l-3 -95 -65 -65 c-36 -36 -72 -82 -81 -102 -14 -34 -13 -41
2 -73 9 -19 20 -35 24 -35 4 0 20 -21 35 -47 15 -26 29 -42 32 -35 2 6 -6 25
-17 41 -24 33 -25 42 -10 94 15 55 165 207 204 207 20 0 26 4 21 15 -5 14 0
16 67 30 9 2 17 -1 17 -6 0 -5 -6 -9 -14 -9 -8 0 -17 -4 -20 -8 -3 -5 3 -8 12
-7 16 2 24 5 67 21 11 4 25 6 32 5 6 -1 14 3 18 9 3 5 15 10 26 10 10 0 19 4
19 9 0 5 15 12 33 15 35 7 130 82 121 97 -3 5 3 9 14 9 20 0 62 39 62 58 0 20
-14 13 -35 -18 -11 -17 -22 -25 -26 -18 -5 7 -21 7 -55 0 -27 -6 -78 -14 -113
-18 -35 -3 -78 -10 -94 -15 l-31 -9 35 36 c19 20 67 62 108 93 41 31 92 71
115 88 23 18 79 60 126 92 94 66 178 136 170 144 -3 2 -35 -21 -72 -52z m-597
-257 c-5 -16 -10 -21 -10 -12 -1 18 10 51 15 45 2 -1 -1 -16 -5 -33z m-34 -13
c-2 -10 -8 -25 -14 -33 -6 -7 -13 -20 -16 -28 -4 -12 -6 -12 -6 2 -1 14 29 78
36 78 2 0 2 -9 0 -19z m1 -66 c-1 -14 -6 -25 -11 -25 -5 0 -6 7 -3 16 3 9 6
20 6 25 0 5 2 9 5 9 3 0 4 -11 3 -25z m-38 -39 c0 -13 -6 -26 -14 -29 -12 -5
-13 -1 -4 24 12 35 18 37 18 5z m441 -21 c0 -6 -10 -16 -23 -24 -21 -12 -21
-12 -5 2 19 16 24 32 5 21 -7 -4 -8 -3 -4 5 9 14 28 11 27 -4z m-131 -21 c0
-2 -9 -4 -21 -4 -11 0 -18 4 -14 10 5 8 35 3 35 -6z m-114 -1 c-3 -4 -17 -8
-29 -10 -17 -2 -19 -1 -7 7 17 11 47 14 36 3z m49 -3 c-3 -5 -12 -7 -20 -3
-21 7 -19 13 6 13 11 0 18 -4 14 -10z m-268 -32 c-3 -7 -5 -2 -5 12 0 14 2 19
5 13 2 -7 2 -19 0 -25z m371 -13 c2 -1 -5 -6 -15 -9 -9 -4 -14 -4 -10 0 4 4
-1 13 -11 21 -15 12 -14 13 8 2 14 -6 26 -13 28 -14z m-128 5 c-19 -13 -30
-13 -30 0 0 6 10 10 23 10 18 0 19 -2 7 -10z m78 -21 c3 -11 1 -11 -6 -1 -5 7
-17 10 -28 6 -16 -5 -16 -4 -4 5 18 13 32 10 38 -10z m-318 -10 c0 -5 -4 -9
-8 -9 -5 0 -9 7 -9 15 0 8 4 12 9 9 4 -3 8 -9 8 -15z m169 0 c-17 -11 -39 -12
-39 -1 0 4 12 8 27 9 19 1 22 -1 12 -8z m121 -3 c0 -2 -7 -6 -15 -10 -8 -3
-15 -1 -15 4 0 6 7 10 15 10 8 0 15 -2 15 -4z m-63 -12 c-3 -3 -12 -4 -19 -1
-8 3 -5 6 6 6 11 1 17 -2 13 -5z m-227 -68 c9 -12 1 -25 -47 -71 -32 -31 -72
-69 -89 -85 -37 -36 -49 -38 -32 -5 11 21 146 175 153 175 1 0 8 -7 15 -14z"/>
<path d="M2733 1346 c-13 -6 -23 -14 -23 -19 0 -7 17 0 50 23 20 13 1 11 -27
-4z"/>
<path d="M5000 1350 c-13 -8 -13 -10 2 -10 9 0 20 5 23 10 8 13 -5 13 -25 0z"/>
<path d="M4915 1330 c-3 -6 1 -7 9 -4 18 7 21 14 7 14 -6 0 -13 -4 -16 -10z"/>
<path d="M4833 1307 c0 -7 -3 -22 -7 -34 -11 -34 0 -28 12 7 6 16 7 32 3 34
-4 3 -8 0 -8 -7z"/>
<path d="M4725 1290 c-3 -5 -2 -10 4 -10 5 0 13 5 16 10 3 6 2 10 -4 10 -5 0
-13 -4 -16 -10z"/>
<path d="M5146 1273 c-6 -14 -5 -15 5 -6 7 7 10 15 7 18 -3 3 -9 -2 -12 -12z"/>
<path d="M2835 1250 c-59 -11 -77 -17 -45 -14 30 3 64 7 75 9 11 2 35 4 53 4
17 1 32 6 32 11 0 6 -3 10 -7 9 -5 -1 -53 -9 -108 -19z"/>
<path d="M4630 1240 c-9 -6 -10 -10 -3 -10 6 0 15 5 18 10 8 12 4 12 -15 0z"/>
<path d="M2675 1234 c-49 -10 -125 -39 -125 -47 0 -5 8 -6 18 -1 9 4 27 8 39
8 11 1 19 4 17 7 -6 11 24 19 67 19 21 0 39 5 39 10 0 10 -18 11 -55 4z"/>
<path d="M4680 1215 c-18 -47 -52 -205 -47 -222 2 -11 7 -1 11 22 4 22 18 82
31 133 22 90 24 117 5 67z"/>
<path d="M4805 1210 c-4 -17 -5 -34 -2 -36 2 -3 7 10 11 27 8 42 0 50 -9 9z"/>
<path d="M5113 1213 c-4 -10 -14 -23 -22 -30 -9 -7 -11 -13 -5 -13 6 0 16 6
21 13 13 15 24 47 17 47 -2 0 -8 -8 -11 -17z"/>
<path d="M3607 1207 c-3 -7 -1 -20 3 -28 7 -11 10 -10 16 4 4 10 2 23 -3 28
-7 7 -12 6 -16 -4z"/>
<path d="M4977 1159 c7 -7 15 -10 18 -7 3 3 -2 9 -12 12 -14 6 -15 5 -6 -5z"/>
<path d="M5032 1082 c-11 -25 -11 -25 4 -10 9 9 15 21 13 27 -2 6 -10 -2 -17
-17z"/>
<path d="M4855 1090 l-20 -9 20 0 c11 0 29 4 40 9 l20 9 -20 0 c-11 0 -29 -4
-40 -9z"/>
<path d="M3720 1039 c0 -18 2 -19 15 -9 15 12 12 30 -6 30 -5 0 -9 -10 -9 -21z"/>
<path d="M4994 1025 c-10 -8 -14 -15 -8 -15 6 0 17 7 24 15 16 19 9 19 -16 0z"/>
<path d="M3792 990 c0 -14 2 -19 5 -12 2 6 2 18 0 25 -3 6 -5 1 -5 -13z"/>
<path d="M3845 945 c7 -33 12 -41 21 -33 3 4 -2 19 -11 35 l-16 28 6 -30z"/>
<path d="M3882 896 c1 -10 8 -17 13 -17 15 1 12 24 -3 29 -9 3 -13 -2 -10 -12z"/>
<path d="M3961 853 c8 -10 29 -34 46 -53 18 -19 39 -42 47 -50 7 -8 28 -39 46
-67 17 -29 36 -53 41 -53 4 0 6 -6 3 -13 -2 -7 10 -23 27 -36 18 -13 28 -17
24 -10 -17 28 -80 124 -90 136 -5 7 -16 19 -22 27 -7 8 -13 17 -13 20 0 7
-110 116 -117 116 -3 0 1 -8 8 -17z"/>
<path d="M3910 850 c0 -5 5 -10 10 -10 6 0 10 5 10 10 0 6 -4 10 -10 10 -5 0
-10 -4 -10 -10z"/>
<path d="M4530 750 c0 -5 5 -10 11 -10 5 0 7 5 4 10 -3 6 -8 10 -11 10 -2 0
-4 -4 -4 -10z"/>
<path d="M4030 690 c0 -5 5 -10 11 -10 5 0 7 5 4 10 -3 6 -8 10 -11 10 -2 0
-4 -4 -4 -10z"/>
<path d="M3441 683 c9 -2 23 -18 32 -36 10 -18 35 -59 56 -92 22 -33 40 -63
40 -66 1 -3 -33 -20 -74 -39 -41 -18 -73 -35 -72 -37 5 -4 160 56 166 65 10
13 52 12 66 -2 11 -11 0 -19 -63 -47 -42 -19 -80 -34 -84 -35 -5 -1 -13 -2
-19 -3 -5 0 -7 -6 -3 -12 5 -8 1 -8 -14 0 -36 19 -49 12 -16 -9 52 -33 214
-56 222 -31 2 6 8 11 13 11 6 0 7 -5 3 -11 -16 -26 81 18 110 50 17 19 22 20
40 8 38 -25 226 -80 226 -67 0 11 -49 30 -79 30 -16 0 -34 6 -40 14 -6 8 -31
19 -56 25 -48 12 -63 27 -46 44 15 15 14 42 -4 57 -8 7 -13 16 -10 20 9 14
-88 101 -104 95 -9 -3 -12 -3 -8 1 3 4 -9 15 -28 25 -47 25 -48 24 -14 -10 16
-17 29 -40 29 -54 0 -33 10 -58 20 -52 4 3 11 -2 14 -11 3 -9 2 -12 -5 -9 -6
4 -8 -4 -4 -22 3 -15 2 -21 -1 -13 -48 113 -105 199 -132 200 -7 0 -2 -11 12
-27 14 -15 36 -47 49 -72 13 -26 30 -56 37 -68 19 -30 8 -38 -29 -19 -16 9
-37 16 -45 16 -36 0 -66 27 -115 106 -34 52 -59 84 -70 83 -14 -1 -14 -2 0 -6z
m372 -185 c9 -21 11 -38 6 -38 -10 0 -19 17 -23 43 -1 8 -9 25 -17 38 -28 44
-31 54 -6 25 14 -16 32 -46 40 -68z m-43 -103 c-7 -9 -15 -13 -17 -11 -7 7 7
26 19 26 6 0 6 -6 -2 -15z m-165 -36 c5 -5 1 -9 -12 -9 -12 0 -25 5 -29 11 -4
8 -9 7 -14 -2 -7 -10 -13 -10 -32 -1 -21 11 -21 12 -1 7 12 -3 24 -1 28 5 7
11 43 4 60 -11z"/>
<path d="M3338 673 c7 -3 16 -2 19 1 4 3 -2 6 -13 5 -11 0 -14 -3 -6 -6z"/>
<path d="M3558 673 c7 -3 16 -2 19 1 4 3 -2 6 -13 5 -11 0 -14 -3 -6 -6z"/>
<path d="M3268 663 c7 -3 16 -2 19 1 4 3 -2 6 -13 5 -11 0 -14 -3 -6 -6z"/>
<path d="M3370 663 c0 -6 11 -25 25 -41 14 -17 25 -34 25 -40 0 -6 6 -12 13
-15 6 -2 10 -7 7 -10 -3 -3 -48 3 -100 13 -51 11 -95 18 -97 16 -3 -2 20 -9
49 -15 137 -30 147 -37 85 -66 -24 -11 -25 -13 -7 -9 14 4 37 15 51 25 25 17
30 18 70 4 55 -20 64 -11 10 11 -29 11 -54 34 -86 77 -25 33 -45 56 -45 50z"/>
<path d="M4063 644 c-3 -8 -1 -20 6 -27 8 -8 11 -4 11 16 0 30 -7 35 -17 11z"/>
<path d="M3111 596 c7 -7 108 -11 114 -4 3 3 -23 6 -57 7 -34 1 -60 0 -57 -3z"/>
<path d="M4096 592 c-2 -4 -1 -14 5 -22 7 -12 9 -10 9 8 0 23 -5 28 -14 14z"/>
<path d="M3121 566 c10 -9 69 -36 69 -32 0 6 -55 36 -66 36 -4 0 -5 -2 -3 -4z"/>
<path d="M3200 527 c0 -2 15 -14 33 -27 20 -15 27 -17 18 -6 -13 16 -51 41
-51 33z"/>
<path d="M4230 450 c0 -8 5 -22 10 -30 9 -13 10 -13 10 0 0 8 -5 22 -10 30 -9
13 -10 13 -10 0z"/>
<path d="M3395 410 c3 -5 8 -10 11 -10 2 0 4 5 4 10 0 6 -5 10 -11 10 -5 0 -7
-4 -4 -10z"/>
<path d="M4270 386 c0 -8 5 -18 10 -21 6 -3 10 3 10 14 0 12 -4 21 -10 21 -5
0 -10 -6 -10 -14z"/>
<path d="M4325 370 c4 -6 11 -8 16 -5 14 9 11 15 -7 15 -8 0 -12 -5 -9 -10z"/>
<path d="M4340 346 c0 -2 7 -9 15 -16 13 -11 14 -10 9 4 -5 14 -24 23 -24 12z"/>
<path d="M4275 330 c-3 -5 -1 -10 4 -10 6 0 11 5 11 10 0 6 -2 10 -4 10 -3 0
-8 -4 -11 -10z"/>
<path d="M4324 309 c-3 -6 -1 -16 5 -22 8 -8 11 -5 11 11 0 24 -5 28 -16 11z"/>
<path d="M4390 210 c0 -5 4 -10 10 -10 5 0 12 -17 16 -37 12 -71 40 -157 52
-161 7 -2 12 4 12 13 0 9 -5 13 -11 9 -7 -4 -9 0 -5 13 4 11 2 31 -3 44 -5 13
-9 28 -9 33 0 5 -4 12 -9 15 -5 3 -15 25 -21 49 -11 37 -32 58 -32 32z"/>
</g>
</svg>
